<svg xmlns:xlink="http://www.w3.org/1999/xlink" xmlns="http://www.w3.org/2000/svg" stroke-width="0.501" stroke-linejoin="bevel" fill-rule="evenodd" version="1.1" overflow="visible" viewBox="0 0 75 93.75" x="0px" y="0px"><g stroke="black" font-family="Times New Roman" font-size="16" transform="scale(1 -1)"><g transform="translate(0 -75)"><g><path d="M 11.431,7.827 C 11.309,7.863 11.188,7.902 11.069,7.944 C 10.756,8.02 10.449,8.114 10.144,8.228 C 9.78,8.364 9.422,8.559 9.083,8.748 C 8.945,8.824 8.796,8.929 8.669,9.023 C 8.204,9.37 7.859,9.689 7.484,10.12 C 7.189,10.46 6.924,10.898 6.721,11.298 C 6.686,11.37 6.652,11.442 6.618,11.516 C 6.238,12.12 5.93,12.77 5.706,13.473 C 5.544,13.98 5.398,14.481 5.381,15.017 C 5.365,15.544 5.45,16.051 5.612,16.535 C 4.959,16.438 4.284,16.448 3.646,16.618 C 3.43,16.674 3.223,16.76 3.032,16.873 C 3.011,16.871 2.989,16.872 2.966,16.879 C 2.952,16.882 2.938,16.888 2.926,16.894 C 2.931,16.793 2.939,16.692 2.951,16.591 C 2.96,16.463 2.862,16.35 2.734,16.341 C 2.606,16.333 2.494,16.43 2.485,16.558 C 2.431,17.069 2.444,17.585 2.517,18.093 C 2.411,18.102 2.304,18.115 2.202,18.13 C 1.827,18.185 1.493,18.257 1.125,18.349 C 0.859,18.416 0.597,18.523 0.342,18.621 C 0.035,18.739 -0.287,18.962 -0.567,19.14 C -0.599,19.158 -0.61,19.202 -0.591,19.234 C -0.573,19.266 -0.529,19.277 -0.497,19.258 C -0.26,19.11 -0.032,19.017 0.225,18.916 C 0.62,18.76 1.023,18.582 1.446,18.513 C 1.814,18.452 2.18,18.387 2.554,18.384 C 2.509,18.866 2.448,19.351 2.393,19.833 C 2.362,20.099 2.331,20.365 2.299,20.631 C 2.266,20.638 2.233,20.652 2.206,20.672 C 2.179,20.137 2.138,19.602 2.102,19.068 C 2.1,18.982 2.025,18.915 1.938,18.918 C 1.852,18.921 1.785,18.995 1.788,19.082 C 1.813,20.314 1.866,21.544 1.917,22.778 C 1.822,23.945 1.751,25.112 1.702,26.286 C 1.67,27.018 1.636,27.764 1.634,28.496 C 1.63,29.522 1.6,30.545 1.612,31.572 C 1.612,31.586 1.612,31.601 1.612,31.615 C 1.548,31.615 1.484,31.613 1.421,31.612 C 1.387,31.612 1.357,31.64 1.357,31.674 C 1.357,31.708 1.385,31.738 1.419,31.738 C 1.483,31.739 1.548,31.74 1.614,31.741 C 1.62,32.307 1.62,32.872 1.631,33.438 C 1.657,34.99 1.7,36.547 1.763,38.098 C 1.772,38.345 1.783,38.593 1.795,38.839 C 1.837,40.523 1.893,42.205 1.951,43.887 C 1.998,45.252 2.045,46.618 2.093,47.983 C 2.034,48.027 1.996,48.094 1.992,48.172 C 1.872,49.772 1.867,51.412 1.968,53.013 C 1.997,53.467 2.036,53.918 2.074,54.372 C 2.133,55.092 2.236,55.806 2.339,56.522 C 2.34,56.552 2.34,56.583 2.341,56.614 C 2.344,56.881 2.346,57.148 2.348,57.415 C 2.311,57.435 2.279,57.465 2.257,57.505 C 2.168,57.629 2.096,57.794 2.035,57.935 C 1.868,58.326 1.872,58.792 2.077,59.169 C 2.104,59.22 2.135,59.269 2.168,59.315 C 2.165,59.314 2.161,59.314 2.157,59.313 C 1.802,59.226 1.446,59.149 1.093,59.055 C 0.966,59.022 0.833,59.099 0.8,59.226 C 0.767,59.353 0.843,59.486 0.971,59.519 C 1.354,59.621 1.737,59.751 2.12,59.845 C 2.415,59.918 2.713,59.987 3.011,60.052 C 3.028,60.12 3.045,60.189 3.062,60.258 C 3.07,60.291 3.078,60.324 3.087,60.358 C 2.961,60.32 2.834,60.282 2.71,60.243 C 2.386,60.142 2.064,60.051 1.745,59.931 C 1.468,59.826 1.206,59.714 0.933,59.599 C 0.867,59.571 0.788,59.601 0.76,59.667 C 0.732,59.733 0.762,59.811 0.828,59.84 C 1.457,60.119 2.1,60.4 2.757,60.609 C 2.833,60.634 2.911,60.658 2.988,60.681 C 2.835,60.657 2.681,60.634 2.528,60.612 C 2.455,60.602 2.385,60.652 2.374,60.725 C 2.364,60.798 2.414,60.868 2.487,60.878 C 2.74,60.915 2.994,60.952 3.247,60.99 C 3.315,61.152 3.493,61.243 3.668,61.199 C 3.744,61.178 3.807,61.136 3.854,61.079 C 4.364,61.154 4.875,61.227 5.388,61.29 C 5.52,61.305 5.652,61.321 5.787,61.327 C 6.678,61.566 7.591,61.716 8.497,61.851 C 9.122,61.943 9.748,62.016 10.378,62.053 C 10.271,62.06 10.251,62.062 10.23,62.065 C 10.089,62.078 9.986,62.204 10,62.345 C 10.014,62.486 10.14,62.589 10.281,62.575 C 11.209,62.481 12.134,62.391 13.063,62.323 C 13.669,62.366 14.276,62.396 14.883,62.438 C 16.384,62.539 17.917,62.568 19.421,62.595 C 21.593,62.635 23.767,62.614 25.939,62.572 C 28.351,62.527 30.775,62.424 33.183,62.271 C 33.312,62.263 33.441,62.255 33.569,62.246 C 33.786,62.248 34.003,62.25 34.22,62.251 C 34.783,62.254 35.346,62.265 35.909,62.259 C 36.472,62.252 37.035,62.258 37.598,62.251 C 38.3,62.243 39.006,62.227 39.707,62.209 C 40.341,62.194 40.974,62.158 41.607,62.138 C 42.378,62.115 43.156,62.044 43.926,61.989 C 44.177,61.97 44.366,61.75 44.347,61.5 C 44.339,61.385 44.288,61.283 44.212,61.208 C 44.404,61.18 44.595,61.152 44.787,61.123 L 44.809,61.123 C 44.776,61.15 44.77,61.19 44.773,61.231 C 44.783,61.392 44.924,61.515 45.085,61.504 C 45.182,61.489 45.307,61.482 45.408,61.472 C 45.654,61.448 46.056,61.316 46.264,61.183 C 46.277,61.173 46.293,61.164 46.307,61.154 C 46.672,61.16 47.038,61.164 47.404,61.169 C 47.4,61.266 47.396,61.364 47.393,61.462 C 47.392,61.495 47.418,61.523 47.451,61.524 C 47.484,61.525 47.512,61.499 47.513,61.466 C 47.517,61.367 47.521,61.269 47.525,61.17 C 48.151,61.177 48.776,61.187 49.402,61.206 C 49.331,61.173 49.262,61.128 49.185,61.114 C 48.896,61.065 48.6,61.033 48.309,60.99 C 48.268,60.983 48.227,60.977 48.187,60.971 C 48.217,60.796 48.248,60.621 48.279,60.446 C 48.702,60.342 49.124,60.232 49.547,60.137 C 49.608,60.124 49.647,60.063 49.635,60.002 C 49.622,59.941 49.561,59.901 49.5,59.913 C 49.114,59.98 48.726,60.043 48.339,60.103 C 48.389,59.806 48.436,59.508 48.475,59.21 C 48.506,58.959 48.534,58.708 48.559,58.456 C 48.586,58.465 48.612,58.467 48.629,58.457 C 48.685,58.425 48.681,58.182 48.685,58.116 C 48.715,57.728 48.75,57.339 48.77,56.951 C 48.863,55.181 48.905,53.433 48.89,51.661 C 48.881,50.455 48.852,49.247 48.816,48.041 C 49.071,48.076 49.326,48.116 49.58,48.158 C 49.571,48.172 49.56,48.184 49.55,48.197 C 49.515,48.244 49.523,48.312 49.57,48.347 C 49.616,48.381 49.684,48.374 49.719,48.327 C 49.746,48.285 49.779,48.242 49.812,48.198 C 50.558,48.328 51.301,48.478 52.046,48.613 C 52.545,48.704 53.043,48.81 53.544,48.888 C 54.569,49.049 55.618,49.179 56.667,49.211 C 56.597,49.289 56.528,49.367 56.462,49.445 C 56.391,49.523 56.396,49.644 56.473,49.715 C 56.551,49.786 56.672,49.781 56.743,49.704 C 56.861,49.57 56.989,49.442 57.104,49.308 C 57.129,49.277 57.154,49.248 57.179,49.219 C 57.748,49.219 58.315,49.186 58.876,49.11 C 58.869,49.119 58.861,49.128 58.855,49.138 C 58.807,49.193 58.814,49.279 58.869,49.327 C 58.924,49.375 59.011,49.368 59.058,49.312 C 59.131,49.224 59.206,49.137 59.28,49.049 C 59.768,48.965 60.251,48.845 60.727,48.685 C 61.107,48.557 61.506,48.389 61.859,48.2 C 61.984,48.133 62.108,48.054 62.233,47.983 C 62.382,47.899 62.534,47.788 62.678,47.694 C 62.724,47.68 62.953,47.466 63,47.417 C 63.252,47.155 63.463,46.887 63.661,46.58 C 64.151,45.82 64.57,44.985 64.929,44.152 C 64.963,44.072 64.998,43.991 65.033,43.911 C 65.103,43.8 65.174,43.688 65.241,43.576 C 65.596,42.98 65.957,42.387 66.309,41.787 C 66.608,41.275 66.9,40.758 67.189,40.239 C 67.312,40.098 67.434,39.957 67.543,39.804 C 67.838,39.393 68.064,38.971 68.301,38.526 C 68.206,38.598 68.113,38.67 68.021,38.741 C 68.255,38.324 68.49,37.907 68.73,37.493 C 69.063,36.916 69.376,36.314 69.687,35.724 C 70.044,35.045 70.433,34.366 70.769,33.681 C 70.934,33.346 71.113,33.007 71.282,32.675 C 71.335,32.572 71.386,32.467 71.439,32.364 C 71.488,32.266 71.529,32.151 71.584,32.056 C 71.653,31.937 71.708,31.789 71.767,31.664 C 71.819,31.554 71.891,31.397 71.928,31.283 C 72.032,31.003 71.912,30.693 71.658,30.555 C 71.663,30.32 71.666,30.084 71.664,29.847 C 71.794,29.671 71.924,29.495 72.056,29.319 C 72.048,29.473 72.04,29.626 72.031,29.778 C 72.011,30.102 71.977,30.427 71.951,30.752 C 71.944,30.853 72.018,30.943 72.119,30.951 C 72.22,30.958 72.31,30.884 72.318,30.783 C 72.343,30.439 72.386,30.097 72.417,29.755 C 72.459,29.302 72.488,28.849 72.506,28.396 C 72.516,28.096 72.524,27.796 72.53,27.497 C 72.692,27.516 72.857,27.527 73.025,27.527 C 73.204,27.527 73.388,27.52 73.565,27.498 C 73.624,27.49 73.691,27.492 73.746,27.473 C 73.807,27.451 73.857,27.412 73.896,27.362 C 74.155,27.027 74.252,26.712 74.323,26.298 C 74.425,25.701 74.395,25.014 74.348,24.411 C 74.301,23.801 74.255,23.2 74.181,22.594 C 74.152,22.35 74.118,22.016 74.13,21.774 L 74.129,21.705 L 74.133,21.599 L 74.127,21.624 L 74.126,21.528 C 74.123,21.51 74.12,21.493 74.116,21.477 C 74.186,21.317 74.241,21.157 74.282,20.978 C 74.353,20.662 74.385,20.284 74.388,19.962 C 74.392,19.571 74.397,19.182 74.394,18.79 C 74.392,18.616 74.374,18.439 74.371,18.263 C 74.368,18.04 74.36,17.818 74.359,17.595 C 74.358,17.409 74.369,17.223 74.374,17.037 C 74.379,16.845 74.43,16.557 74.375,16.382 C 74.317,16.195 74.203,16.108 74.039,16.017 C 73.86,15.918 73.688,15.818 73.497,15.739 C 73.341,15.674 73.169,15.62 72.993,15.576 L 72.542,15.478 C 72.48,15.345 72.373,15.242 72.231,15.192 C 72.098,15.123 71.852,15.094 71.703,15.076 C 71.348,15.032 70.968,15.043 70.606,15.042 L 70.546,14.909 C 70.517,14.847 70.464,14.694 70.404,14.661 C 70.335,14.623 70.089,14.69 70.003,14.704 C 69.595,14.771 69.197,14.828 68.787,14.877 C 68.148,14.951 67.474,14.978 66.831,15.008 C 66.474,15.024 66.117,15.045 65.762,15.071 C 65.793,14.604 65.802,14.149 65.739,13.681 C 65.739,13.528 65.613,13.404 65.46,13.404 C 65.308,13.404 65.184,13.53 65.184,13.683 C 65.123,14.16 65.132,14.644 65.105,15.124 C 65.054,15.129 65.004,15.134 64.954,15.139 C 64.787,15.154 64.62,15.17 64.452,15.184 C 64.545,14.589 64.557,13.981 64.474,13.364 C 64.476,13.363 64.478,13.362 64.481,13.361 C 64.634,13.255 64.671,13.041 64.564,12.888 C 64.514,12.815 64.439,12.768 64.358,12.751 C 64.291,12.473 64.195,12.178 64.083,11.934 C 63.652,11.002 63.128,10.348 62.366,9.677 C 62.106,9.449 61.782,9.199 61.49,9.017 C 61.346,8.927 61.201,8.841 61.058,8.751 C 60.941,8.676 60.812,8.621 60.689,8.555 C 59.172,7.743 57.342,7.517 55.66,7.831 C 55.414,7.877 55.155,7.934 54.916,8.008 C 54.809,8.041 54.704,8.075 54.601,8.111 C 54.046,8.243 53.502,8.442 52.969,8.715 C 52.838,8.782 52.706,8.849 52.581,8.925 C 51.955,9.309 51.459,9.747 50.981,10.298 C 50.686,10.638 50.421,11.075 50.218,11.475 C 50.178,11.558 50.139,11.641 50.101,11.727 C 49.996,11.894 49.897,12.065 49.803,12.236 C 49.632,12.546 49.505,12.869 49.366,13.193 C 49.211,13.557 49.109,13.971 49,14.351 C 48.982,14.402 48.969,14.504 48.956,14.567 C 48.897,14.877 48.877,15.142 48.881,15.457 C 48.893,16.477 49.402,17.627 50.045,18.407 L 50.356,18.766 L 50.366,18.788 C 50.938,19.853 51.825,20.744 52.88,21.391 C 53.193,21.583 53.546,21.781 53.886,21.921 C 54.024,21.978 54.163,22.043 54.301,22.099 C 54.598,22.218 54.917,22.312 55.232,22.383 C 55.671,22.482 56.066,22.516 56.513,22.536 C 57.274,22.569 58.013,22.399 58.733,22.174 C 58.904,22.12 59.078,22.042 59.247,21.966 C 59.345,21.946 59.445,21.923 59.552,21.897 C 60.083,21.763 60.597,21.51 61.065,21.228 C 61.435,21.006 61.839,20.661 62.139,20.351 C 62.372,20.11 62.584,19.852 62.775,19.579 L 62.892,19.383 L 62.946,19.343 L 62.909,19.369 C 62.9,19.403 62.898,19.439 62.9,19.477 C 62.913,19.686 63.095,19.846 63.303,19.833 C 63.412,19.813 63.541,19.82 63.667,19.83 C 63.363,20.286 63.009,20.709 62.614,21.089 C 61.983,21.694 61.221,22.106 60.418,22.43 C 59.385,22.848 58.065,22.984 56.958,22.905 C 54.705,22.745 52.525,21.832 50.801,20.378 C 50.41,20.049 50.077,19.661 49.751,19.272 C 49.208,18.626 48.791,17.927 48.489,17.138 C 48.374,16.838 48.314,16.507 48.24,16.195 C 48.132,15.741 48.077,15.171 48.111,14.705 C 48.112,14.64 48.058,14.585 47.993,14.584 C 47.928,14.583 47.873,14.636 47.872,14.701 C 47.86,14.871 47.857,15.069 47.864,15.239 C 47.88,15.632 47.891,16.017 47.963,16.406 C 48.006,16.634 48.074,16.869 48.141,17.091 C 48.232,17.396 48.338,17.69 48.459,17.975 C 48.433,17.953 48.402,17.934 48.367,17.923 C 48.215,17.87 48.046,17.952 47.993,18.104 C 47.979,18.146 47.964,18.188 47.948,18.23 C 47.934,18.22 47.92,18.211 47.905,18.203 C 47.749,18.123 47.555,18.183 47.474,18.339 C 47.341,18.561 47.151,18.909 47.084,19.157 C 47.047,19.289 47.02,19.422 46.999,19.554 C 46.984,19.558 46.969,19.567 46.957,19.579 C 46.789,19.721 46.624,19.863 46.458,20.006 C 46.45,20.006 46.442,20.005 46.434,20.006 C 46.292,20.008 46.175,20.119 46.162,20.259 C 46.022,20.377 45.881,20.494 45.737,20.61 C 45.03,21.177 44.314,21.733 43.602,22.293 C 43.017,22.753 42.439,23.223 41.855,23.684 C 41.191,24.208 40.563,24.773 39.934,25.338 C 39.67,25.575 39.385,25.841 39.142,26.097 C 38.979,26.269 38.809,26.435 38.648,26.608 C 38.282,27.005 37.931,27.409 37.59,27.83 C 37.566,27.859 37.57,27.905 37.599,27.93 C 37.628,27.954 37.675,27.95 37.699,27.921 C 38.173,27.336 38.672,26.778 39.207,26.247 C 40.688,24.775 42.373,23.538 44.036,22.282 C 44.534,21.906 45.023,21.526 45.511,21.137 C 45.664,21.015 45.821,20.899 45.97,20.775 C 46.035,20.72 46.101,20.666 46.167,20.613 C 46.172,20.927 46.178,21.242 46.187,21.555 C 46.181,21.588 46.18,21.619 46.184,21.652 C 46.186,21.677 46.189,21.704 46.192,21.723 C 46.196,21.854 46.2,21.978 46.205,22.103 C 46.214,22.323 46.223,22.544 46.234,22.766 C 45.62,23.197 45.029,23.66 44.44,24.127 C 43.802,24.63 43.202,25.19 42.593,25.728 C 42.258,26.025 41.925,26.342 41.602,26.654 C 40.511,27.714 39.45,28.792 38.385,29.88 C 38.362,29.904 38.362,29.945 38.386,29.968 C 38.411,29.992 38.451,29.992 38.475,29.967 C 40.389,28.011 42.293,26.122 44.443,24.425 C 44.925,24.044 45.424,23.672 45.93,23.323 C 46.036,23.248 46.142,23.172 46.248,23.098 C 46.272,23.628 46.299,24.157 46.325,24.688 C 46.192,24.784 46.054,24.872 45.921,24.944 C 45.833,24.99 45.738,25.035 45.652,25.086 C 45.602,25.112 45.581,25.177 45.607,25.227 C 45.634,25.278 45.699,25.298 45.749,25.272 C 45.837,25.221 45.935,25.18 46.024,25.13 C 46.106,25.084 46.189,25.032 46.27,24.985 C 46.293,24.971 46.315,24.957 46.338,24.943 C 46.362,25.407 46.385,25.871 46.408,26.336 C 46.412,26.434 46.418,26.533 46.423,26.632 C 45.493,27.386 44.598,28.197 43.735,29.009 C 42.853,29.837 41.981,30.674 41.118,31.52 C 40.695,31.501 40.272,31.483 39.85,31.465 C 37.232,31.354 34.603,31.326 31.983,31.306 C 29.266,31.284 26.55,31.259 23.833,31.264 C 22.543,31.267 21.25,31.29 19.959,31.309 C 18.171,31.334 16.391,31.4 14.604,31.46 C 13.469,31.499 12.334,31.526 11.199,31.567 C 10.288,31.6 9.372,31.613 8.461,31.629 C 6.603,31.662 4.749,31.667 2.893,31.64 C 3.008,29.585 3.165,27.542 3.361,25.491 C 3.411,24.975 3.457,24.455 3.517,23.939 C 3.577,23.424 3.635,22.907 3.695,22.392 C 3.739,22.009 3.789,21.627 3.839,21.245 C 3.995,21.454 4.151,21.663 4.325,21.86 C 4.658,22.236 5.009,22.556 5.383,22.888 C 5.977,23.414 6.706,23.864 7.438,24.227 C 7.542,24.293 7.648,24.359 7.752,24.427 C 7.927,24.542 8.136,24.646 8.324,24.742 C 9.041,25.111 9.749,25.331 10.531,25.509 C 11.176,25.655 11.847,25.677 12.504,25.68 C 12.606,25.68 12.711,25.677 12.819,25.672 C 12.929,25.678 13.037,25.682 13.147,25.684 C 13.654,25.696 14.119,25.673 14.623,25.635 C 14.659,25.638 14.736,25.615 14.776,25.609 C 15.009,25.573 15.248,25.51 15.468,25.426 C 16.242,25.135 16.985,24.746 17.666,24.274 C 18.287,23.844 18.87,23.407 19.446,22.916 C 19.657,22.736 19.858,22.542 20.067,22.363 C 20.203,22.246 20.324,22.111 20.457,21.996 C 20.604,21.869 20.771,21.697 20.903,21.554 C 21.092,21.349 21.289,21.147 21.481,20.943 C 21.661,20.749 21.82,20.531 21.995,20.334 C 22.034,20.289 22.073,20.243 22.111,20.195 C 22.808,19.698 23.529,19.243 24.232,18.748 C 24.765,18.371 25.298,17.998 25.793,17.568 C 25.898,17.478 26.005,17.373 26.105,17.276 C 26.19,17.192 26.272,17.091 26.358,17.006 C 26.595,17 26.832,16.993 27.069,16.985 C 27.814,16.96 28.56,16.93 29.306,16.897 C 28.222,17.739 27.237,18.739 26.336,19.735 C 25.432,20.733 24.561,21.756 23.667,22.762 C 23.32,23.151 22.967,23.534 22.616,23.921 L 22.618,23.973 L 22.671,23.971 C 22.998,23.612 23.326,23.255 23.654,22.897 C 24.303,22.188 24.933,21.457 25.581,20.746 C 26.046,20.234 26.526,19.734 27.007,19.238 C 27.331,18.903 27.683,18.584 28.023,18.264 C 28.257,18.044 28.513,17.829 28.761,17.622 C 28.906,17.501 29.048,17.371 29.197,17.254 C 29.355,17.128 29.515,17.004 29.677,16.88 C 30.647,16.837 31.617,16.789 32.588,16.739 C 32.633,16.743 32.68,16.747 32.726,16.751 C 32.74,16.752 32.753,16.753 32.767,16.754 C 32.718,16.793 32.67,16.833 32.622,16.873 C 32.386,17.072 32.134,17.26 31.89,17.45 C 31.378,17.851 30.858,18.248 30.35,18.655 C 29.965,18.963 29.582,19.27 29.205,19.588 C 29.006,19.756 28.814,19.932 28.616,20.101 C 28.279,20.388 27.964,20.713 27.647,21.022 C 27.363,21.3 27.081,21.614 26.825,21.919 C 26.287,22.563 25.772,23.245 25.397,23.999 C 25.382,24.028 25.393,24.066 25.422,24.082 C 25.451,24.097 25.489,24.087 25.504,24.058 C 26.093,22.871 27.082,21.752 28.044,20.865 C 28.4,20.538 28.764,20.235 29.132,19.923 C 29.577,19.546 30.06,19.174 30.528,18.825 C 31.275,18.267 32.016,17.691 32.743,17.109 C 32.876,17.003 33.007,16.893 33.138,16.782 C 33.576,16.817 34.014,16.852 34.452,16.887 C 34.33,16.979 34.208,17.072 34.087,17.167 C 33.57,17.567 33.065,17.979 32.554,18.387 C 31.994,18.833 31.453,19.322 30.919,19.8 C 29.947,20.671 29,21.606 28.186,22.628 C 27.84,23.063 27.486,23.491 27.169,23.948 C 27.149,23.976 27.154,24.017 27.182,24.037 C 27.211,24.058 27.251,24.052 27.272,24.024 C 27.683,23.459 28.118,22.917 28.59,22.401 C 28.911,22.048 29.247,21.712 29.582,21.375 C 31.225,19.715 33.02,18.322 34.871,16.92 C 35.463,16.968 36.054,17.013 36.644,17.057 C 36.243,17.414 35.848,17.788 35.466,18.156 C 34.608,18.982 33.752,19.81 32.929,20.672 C 32.692,20.92 32.45,21.165 32.216,21.414 C 31.868,21.784 31.527,22.162 31.181,22.532 C 30.941,22.787 30.7,23.053 30.472,23.319 C 30.175,23.665 29.859,24.001 29.571,24.357 L 29.61,24.39 C 29.809,24.143 30.027,23.908 30.234,23.669 C 31.079,22.701 31.971,21.774 32.876,20.86 C 33.499,20.231 34.139,19.609 34.791,19.01 C 35.503,18.355 36.214,17.702 36.954,17.079 C 37.33,17.105 37.708,17.131 38.085,17.155 C 38.58,17.185 39.076,17.22 39.57,17.25 C 39.136,17.577 38.711,17.92 38.307,18.265 C 37.599,18.87 36.903,19.478 36.235,20.127 C 35.768,20.581 35.308,21.034 34.851,21.497 C 34.273,22.08 33.729,22.691 33.171,23.292 C 32.601,23.906 32.042,24.549 31.498,25.187 L 31.503,25.247 L 31.562,25.242 C 32.741,23.884 33.946,22.572 35.233,21.319 C 36.522,20.065 37.888,18.906 39.324,17.826 C 39.568,17.641 39.811,17.458 40.057,17.277 C 40.23,17.287 40.402,17.295 40.576,17.302 C 41.046,17.319 41.516,17.347 41.985,17.363 C 42.086,17.366 42.187,17.368 42.288,17.371 C 41.844,17.728 41.405,18.089 40.976,18.46 C 39.538,19.7 38.136,20.99 36.824,22.364 C 36.038,23.185 35.254,24.039 34.543,24.926 C 34.506,24.971 34.512,25.039 34.557,25.076 C 34.602,25.113 34.67,25.107 34.706,25.062 C 35.077,24.599 35.48,24.127 35.884,23.694 C 36.337,23.206 36.785,22.726 37.254,22.252 C 38.274,21.221 39.36,20.257 40.461,19.314 C 41.222,18.66 42.003,18.015 42.791,17.386 C 43.417,17.402 44.042,17.414 44.668,17.429 C 45,17.435 45.333,17.434 45.665,17.431 C 45.118,17.868 44.575,18.308 44.032,18.752 C 43.1,19.513 42.169,20.275 41.249,21.05 C 40.303,21.847 39.388,22.683 38.487,23.531 C 37.81,24.168 37.177,24.847 36.538,25.522 L 36.575,25.557 C 38.798,23.133 41.38,21.056 43.995,19.072 C 44.711,18.528 45.419,17.978 46.129,17.426 C 46.317,17.423 46.505,17.422 46.694,17.422 C 46.988,17.419 47.225,17.176 47.222,16.882 C 47.22,16.782 47.192,16.69 47.143,16.61 C 47.179,16.581 47.214,16.552 47.249,16.523 C 47.421,16.378 47.58,16.184 47.727,16.014 L 47.734,15.951 L 47.671,15.944 C 47.483,16.044 47.282,16.149 47.108,16.275 C 47.095,16.259 47.074,16.247 47.052,16.246 C 46.679,16.165 46.319,16.076 45.938,16.035 C 45.554,15.992 45.162,15.983 44.776,15.972 C 44.206,15.954 43.64,15.943 43.069,15.939 C 41.133,15.927 39.21,15.956 37.276,16.028 C 37.089,16.035 36.901,16.042 36.713,16.049 C 35.381,15.964 34.049,15.875 32.717,15.784 C 31.102,15.674 29.474,15.549 27.856,15.486 C 27.662,15.479 27.469,15.466 27.275,15.461 C 26.745,15.448 26.212,15.461 25.682,15.465 C 25.426,15.466 25.171,15.469 24.916,15.473 C 25.102,15.293 25.291,15.115 25.479,14.936 C 25.518,14.899 25.52,14.835 25.483,14.796 C 25.446,14.757 25.382,14.755 25.343,14.792 C 25.098,15.017 24.858,15.246 24.619,15.477 C 24.359,15.48 24.1,15.484 23.841,15.489 C 23.869,15.372 23.897,15.254 23.921,15.135 C 24.009,14.696 24.055,14.26 24.115,13.818 C 24.13,13.756 24.092,13.692 24.03,13.678 C 23.968,13.663 23.904,13.701 23.89,13.763 C 23.811,13.967 23.741,14.176 23.663,14.38 C 23.613,14.507 23.564,14.634 23.514,14.76 C 23.43,14.823 23.351,14.894 23.293,14.938 C 23.047,15.119 22.798,15.313 22.556,15.511 C 22.324,15.514 22.092,15.517 21.861,15.52 C 21.682,15.521 21.539,15.669 21.54,15.847 C 21.54,16.002 21.65,16.13 21.796,16.161 C 21.644,16.294 21.493,16.429 21.343,16.566 C 21.074,16.558 20.806,16.548 20.538,16.542 C 20.574,16.453 20.613,16.358 20.639,16.272 C 20.713,16.028 20.782,15.793 20.851,15.547 C 20.96,15.157 20.994,14.724 21.031,14.321 C 21.039,14.236 21.034,14.146 21.035,14.059 C 21.038,13.799 21.029,13.556 20.995,13.297 C 20.989,13.259 20.985,13.222 20.979,13.185 C 20.981,13.184 20.982,13.183 20.984,13.183 C 21.137,13.076 21.174,12.862 21.067,12.709 C 21.015,12.634 20.938,12.588 20.855,12.57 C 20.827,12.458 20.796,12.342 20.761,12.223 C 20.722,12.087 20.659,11.951 20.611,11.817 C 20.519,11.563 20.357,11.307 20.227,11.07 C 20.031,10.71 19.706,10.327 19.425,10.03 C 19.363,9.966 19.305,9.894 19.239,9.835 C 19.152,9.756 19.055,9.67 18.971,9.588 C 18.762,9.384 18.449,9.148 18.203,8.985 C 17.964,8.825 17.719,8.654 17.465,8.518 C 16.499,8 15.564,7.686 14.474,7.557 C 13.5,7.441 12.369,7.547 11.431,7.827 Z M 12.877,9.574 C 12.754,9.705 12.622,9.827 12.492,9.951 C 12.277,10.156 12.059,10.356 11.841,10.554 C 11.879,10.442 11.841,10.311 11.741,10.239 C 11.616,10.149 11.443,10.178 11.353,10.302 C 11.164,10.552 10.998,10.824 10.808,11.073 C 10.484,11.497 10.163,11.912 9.822,12.322 C 8.948,13.372 8.012,14.385 7.17,15.461 C 7.112,15.281 7.065,15.094 7.023,14.916 C 7.003,14.831 6.984,14.745 6.968,14.658 C 6.979,14.54 6.991,14.422 7.012,14.305 C 7.046,14.107 7.091,13.912 7.138,13.717 C 8.381,12.266 9.76,10.94 10.992,9.481 C 11.207,9.226 11.396,8.967 11.6,8.706 C 11.611,8.689 11.621,8.672 11.629,8.654 C 11.639,8.652 11.648,8.649 11.658,8.647 C 12.049,8.54 12.415,8.466 12.817,8.413 C 13.149,8.368 13.528,8.348 13.894,8.359 C 13.601,8.802 13.257,9.168 12.877,9.574 Z M 14.533,8.418 C 14.598,8.427 14.665,8.435 14.73,8.448 C 15.517,8.595 16.266,8.881 16.938,9.279 C 16.867,9.335 16.796,9.393 16.727,9.45 C 16.203,9.878 15.718,10.353 15.248,10.839 C 14.915,11.181 14.586,11.529 14.258,11.877 C 13.897,11.806 13.525,11.774 13.16,11.78 C 13.215,11.719 13.268,11.657 13.323,11.598 C 13.543,11.351 13.765,11.106 13.989,10.862 C 14.307,10.513 14.632,10.15 14.995,9.851 C 15.117,9.751 15.259,9.631 15.397,9.555 C 15.513,9.471 15.539,9.307 15.454,9.191 C 15.37,9.076 15.206,9.05 15.09,9.134 C 14.507,9.568 13.974,10.272 13.524,10.837 C 13.266,11.161 12.991,11.502 12.706,11.802 C 12.704,11.803 12.703,11.805 12.702,11.807 C 12.57,11.821 12.441,11.84 12.317,11.865 L 12.201,11.893 L 11.902,11.911 C 11.626,11.936 11.405,11.988 11.098,12.104 C 10.984,12.147 10.89,12.22 10.786,12.276 C 10.569,12.394 10.292,12.71 10.166,12.922 C 10.117,13.005 10.079,13.096 10.032,13.176 C 9.97,13.28 9.916,13.45 9.876,13.607 C 9.476,14.053 9.087,14.505 8.714,14.972 C 8.324,15.457 7.937,15.942 7.574,16.446 C 7.471,16.231 7.376,16.01 7.288,15.785 C 7.418,15.622 7.552,15.462 7.687,15.302 C 8.094,14.815 8.521,14.348 8.955,13.884 C 9.281,13.534 9.615,13.187 9.937,12.834 C 10.131,12.622 10.323,12.405 10.52,12.195 C 10.619,12.089 10.708,11.974 10.805,11.867 C 10.969,11.683 11.138,11.488 11.302,11.287 C 11.415,11.193 11.528,11.1 11.638,11.01 C 12.005,10.708 12.373,10.401 12.73,10.085 C 13.012,9.835 13.326,9.578 13.583,9.302 C 13.739,9.135 13.89,8.971 14.041,8.799 C 14.155,8.669 14.25,8.531 14.343,8.391 C 14.408,8.399 14.471,8.407 14.533,8.418 Z M 57.246,8.75 C 57.124,8.909 56.994,9.061 56.871,9.219 C 56.824,9.281 56.766,9.336 56.713,9.394 C 56.508,9.622 56.29,9.847 56.066,10.057 C 55.824,10.283 55.582,10.509 55.339,10.732 C 55.378,10.619 55.34,10.489 55.239,10.416 C 55.114,10.327 54.941,10.355 54.851,10.479 C 54.662,10.73 54.496,11.002 54.306,11.251 C 53.984,11.673 53.662,12.093 53.321,12.499 C 52.435,13.552 51.519,14.57 50.67,15.647 C 50.586,15.398 50.516,15.13 50.463,14.854 C 50.475,14.731 50.487,14.607 50.509,14.483 C 50.543,14.286 50.588,14.091 50.635,13.897 C 51.878,12.445 53.258,11.119 54.489,9.658 C 54.704,9.404 54.893,9.145 55.097,8.884 C 55.109,8.867 55.118,8.85 55.126,8.831 C 55.136,8.828 55.146,8.825 55.155,8.823 C 55.546,8.717 55.912,8.643 56.314,8.589 C 56.647,8.545 57.027,8.524 57.394,8.536 C 57.348,8.609 57.3,8.68 57.246,8.75 Z M 58.029,8.594 C 58.152,8.614 58.277,8.623 58.397,8.651 C 58.432,8.658 58.468,8.666 58.506,8.674 C 59.189,8.846 59.845,9.109 60.436,9.457 C 60.39,9.494 60.345,9.53 60.3,9.566 C 59.887,9.89 59.512,10.258 59.135,10.621 C 58.735,11.007 58.348,11.425 57.969,11.833 C 57.899,11.906 57.83,11.981 57.761,12.055 C 57.539,12.005 57.274,11.981 57.063,11.967 C 56.932,11.959 56.799,11.955 56.663,11.957 C 56.77,11.837 56.875,11.715 56.972,11.606 C 57.133,11.426 57.295,11.245 57.459,11.07 C 57.921,10.575 58.328,10.107 58.894,9.732 C 59.01,9.648 59.036,9.483 58.952,9.368 C 58.867,9.252 58.703,9.226 58.588,9.311 C 58.064,9.685 57.677,10.231 57.263,10.716 C 56.989,11.038 56.737,11.389 56.453,11.702 C 56.368,11.796 56.283,11.892 56.198,11.986 C 56.161,11.99 56.125,11.994 56.089,12 L 55.7,12.071 C 55.304,12.087 55.016,12.118 54.645,12.264 C 53.977,12.524 53.554,13.12 53.371,13.788 C 52.972,14.23 52.584,14.684 52.211,15.149 C 51.82,15.636 51.434,16.121 51.071,16.625 C 50.968,16.41 50.872,16.189 50.785,15.963 C 50.915,15.801 51.049,15.641 51.184,15.479 C 51.591,14.992 52.018,14.525 52.452,14.061 C 52.779,13.711 53.11,13.363 53.435,13.012 C 53.631,12.8 53.821,12.583 54.019,12.372 C 54.118,12.266 54.206,12.152 54.303,12.044 C 54.466,11.862 54.635,11.668 54.798,11.467 C 54.912,11.372 55.025,11.278 55.136,11.188 C 55.977,10.492 56.821,9.803 57.537,8.977 C 57.652,8.844 57.747,8.708 57.84,8.568 C 57.904,8.576 57.967,8.584 58.029,8.594 Z M 10.636,9.126 C 10.622,9.125 10.608,9.126 10.594,9.129 C 10.513,9.145 10.431,9.158 10.35,9.173 C 10.479,9.105 10.609,9.041 10.742,8.982 C 10.706,9.03 10.671,9.079 10.636,9.126 Z M 54.133,9.305 C 54.119,9.304 54.106,9.305 54.092,9.308 C 54.01,9.323 53.927,9.338 53.845,9.352 C 53.975,9.283 54.107,9.217 54.241,9.157 C 54.205,9.207 54.169,9.256 54.133,9.305 Z M 9.361,10.748 C 8.681,11.55 7.983,12.34 7.302,13.142 C 7.58,12.31 8.02,11.538 8.51,10.812 L 9.139,9.956 L 9.163,9.938 L 9.209,9.906 C 9.533,9.757 9.942,9.636 10.311,9.558 C 10.002,9.962 9.688,10.362 9.361,10.748 Z M 17.534,9.676 C 17.786,9.865 18.034,10.077 18.265,10.306 C 18.198,10.297 18.127,10.311 18.066,10.349 C 17.946,10.42 17.838,10.51 17.727,10.593 C 17.491,10.77 17.289,10.973 17.078,11.178 C 16.814,11.437 16.572,11.705 16.322,11.976 C 16.157,12.154 15.99,12.336 15.827,12.52 C 15.804,12.504 15.783,12.491 15.763,12.479 C 15.604,12.384 15.46,12.293 15.29,12.212 C 15.27,12.202 15.25,12.193 15.195,12.175 C 15.107,12.118 15.011,12.08 14.912,12.066 C 14.856,12.035 14.793,12.014 14.73,11.996 C 14.825,11.899 14.92,11.801 15.015,11.703 C 15.746,10.944 16.546,10.191 17.422,9.594 C 17.46,9.62 17.497,9.648 17.534,9.676 Z M 52.859,10.926 C 52.178,11.728 51.479,12.519 50.797,13.325 C 51.076,12.489 51.516,11.715 52.007,10.989 L 52.638,10.132 L 52.676,10.104 L 52.698,10.087 C 53.024,9.938 53.435,9.814 53.807,9.737 C 53.499,10.141 53.185,10.54 52.859,10.926 Z M 61.03,9.853 C 61.283,10.044 61.531,10.255 61.762,10.484 C 61.695,10.476 61.624,10.489 61.563,10.528 C 61.46,10.586 61.344,10.675 61.251,10.75 C 61.141,10.84 61.022,10.926 60.919,11.023 C 60.605,11.321 60.318,11.624 60.018,11.935 C 59.815,12.146 59.626,12.374 59.427,12.59 C 59.393,12.626 59.359,12.663 59.325,12.699 C 59.237,12.639 59.146,12.584 59.056,12.532 C 59.049,12.523 59.036,12.516 59.023,12.509 C 58.991,12.491 58.959,12.474 58.863,12.43 C 58.833,12.412 58.807,12.398 58.781,12.386 C 58.77,12.381 58.76,12.376 58.751,12.374 C 58.585,12.288 58.408,12.216 58.229,12.168 C 58.324,12.072 58.418,11.976 58.512,11.88 C 59.251,11.118 60.042,10.373 60.919,9.772 C 60.956,9.798 60.993,9.825 61.03,9.853 Z M 19.153,11.43 C 19.014,11.565 18.874,11.695 18.727,11.827 C 18.643,11.901 18.561,11.986 18.475,12.057 C 18.129,12.343 17.779,12.621 17.43,12.902 C 17.192,13.094 16.946,13.288 16.704,13.489 C 16.612,13.313 16.466,13.134 16.363,12.993 C 16.316,12.929 16.238,12.85 16.149,12.771 C 16.181,12.737 16.214,12.703 16.247,12.67 C 16.443,12.468 16.646,12.273 16.845,12.074 C 17.269,11.653 17.843,11.135 18.384,10.856 C 18.481,10.794 18.532,10.685 18.522,10.577 C 18.761,10.842 18.975,11.129 19.153,11.43 Z M 62.651,11.609 C 62.201,12.042 61.731,12.44 61.239,12.833 C 60.9,13.102 60.542,13.377 60.195,13.665 C 60.191,13.657 60.186,13.65 60.183,13.643 C 60.134,13.564 60.089,13.475 60.038,13.399 C 59.993,13.333 59.937,13.272 59.889,13.208 C 59.822,13.118 59.74,13.03 59.647,12.948 C 59.864,12.722 60.084,12.497 60.311,12.281 C 60.787,11.825 61.295,11.348 61.881,11.035 C 61.978,10.973 62.029,10.864 62.02,10.756 C 62.258,11.021 62.472,11.306 62.651,11.609 Z M 19.471,12.043 L 19.645,12.475 L 19.838,13.185 C 19.171,13.679 18.505,14.174 17.837,14.667 C 17.46,14.944 17.074,15.219 16.697,15.502 C 16.723,15.438 16.747,15.373 16.751,15.204 C 16.818,15.048 16.85,14.88 16.845,14.702 C 16.917,14.585 16.922,14.451 16.917,14.314 C 16.912,14.193 16.885,14.085 16.867,13.968 C 17.231,13.674 17.599,13.407 17.987,13.133 C 18.274,12.929 18.584,12.723 18.86,12.505 C 18.916,12.461 18.97,12.412 19.028,12.368 C 19.127,12.293 19.252,12.199 19.342,12.115 C 19.38,12.079 19.417,12.042 19.455,12.005 C 19.461,12.018 19.465,12.031 19.471,12.043 Z M 63.045,12.403 L 63.141,12.653 L 63.296,13.143 C 63.315,13.212 63.331,13.283 63.349,13.355 C 62.677,13.852 62.006,14.349 61.334,14.845 C 60.95,15.125 60.565,15.405 60.186,15.688 C 60.216,15.612 60.246,15.537 60.274,15.464 C 60.435,15.032 60.455,14.588 60.358,14.148 C 60.64,13.919 60.931,13.703 61.237,13.488 C 61.557,13.261 61.881,13.035 62.194,12.8 C 62.407,12.64 62.659,12.463 62.851,12.281 C 62.883,12.25 62.916,12.218 62.948,12.186 C 62.981,12.257 63.013,12.329 63.045,12.403 Z M 13.701,12.775 C 13.784,12.854 13.916,12.85 13.995,12.767 C 14.007,12.753 14.02,12.739 14.032,12.726 C 14.284,12.774 14.53,12.846 14.771,12.937 C 14.898,12.986 15.078,13.063 15.19,13.139 C 15.205,13.149 15.22,13.159 15.235,13.168 C 15.126,13.277 15.01,13.382 14.916,13.494 C 14.842,13.567 14.842,13.688 14.915,13.761 C 14.988,13.835 15.108,13.835 15.182,13.762 C 15.298,13.639 15.422,13.514 15.547,13.392 C 15.611,13.445 15.671,13.504 15.726,13.571 C 15.87,13.748 15.967,13.919 16.023,14.094 C 15.891,14.222 15.765,14.355 15.647,14.492 C 15.562,14.582 15.567,14.724 15.656,14.809 C 15.746,14.893 15.888,14.888 15.973,14.799 C 15.998,14.767 16.026,14.735 16.055,14.702 L 16.051,14.722 L 16.009,14.957 L 15.903,15.238 C 15.78,15.526 15.626,15.785 15.406,16.033 C 15.218,16.243 14.996,16.44 14.753,16.61 L 14.734,16.619 L 14.431,16.766 C 13.896,16.966 13.369,17.004 12.834,16.786 C 12.058,16.472 11.452,15.593 11.75,14.75 C 11.818,14.557 11.918,14.371 12.06,14.221 C 12.112,14.156 12.102,14.058 12.037,14.006 C 11.972,13.954 11.874,13.964 11.821,14.029 C 11.629,14.262 11.525,14.446 11.431,14.732 C 11.253,15.268 11.39,15.844 11.7,16.315 C 11.656,16.34 11.613,16.365 11.572,16.391 C 11.421,16.135 11.311,15.853 11.247,15.573 C 11.176,15.263 11.18,14.99 11.199,14.678 C 11.219,14.333 11.356,14.04 11.502,13.737 C 11.535,13.669 11.586,13.603 11.63,13.541 C 11.875,13.19 12.258,12.902 12.667,12.724 L 12.705,12.71 L 12.829,12.667 L 13.641,12.667 C 13.65,12.707 13.669,12.745 13.701,12.775 Z M 57.198,12.952 C 57.28,13.03 57.412,13.027 57.491,12.944 C 57.503,12.929 57.516,12.916 57.529,12.901 C 57.531,12.902 57.532,12.902 57.534,12.903 C 57.675,12.931 57.835,12.959 57.97,13.006 C 58.071,13.041 58.169,13.077 58.269,13.114 C 58.393,13.16 58.579,13.243 58.688,13.316 C 58.703,13.326 58.72,13.337 58.735,13.347 C 58.685,13.399 58.634,13.451 58.586,13.498 C 58.529,13.553 58.461,13.615 58.412,13.673 C 58.338,13.746 58.338,13.866 58.411,13.94 C 58.484,14.014 58.604,14.014 58.678,13.941 C 58.796,13.815 58.919,13.691 59.043,13.567 C 59.107,13.621 59.167,13.68 59.222,13.749 C 59.365,13.926 59.463,14.096 59.52,14.271 C 59.388,14.4 59.262,14.532 59.145,14.669 C 59.06,14.758 59.065,14.901 59.155,14.985 C 59.244,15.07 59.387,15.065 59.471,14.976 C 59.495,14.945 59.523,14.914 59.552,14.882 L 59.55,14.894 L 59.506,15.135 L 59.387,15.446 C 59.342,15.55 59.292,15.652 59.228,15.765 C 59.122,15.95 58.99,16.091 58.86,16.257 C 58.748,16.403 58.49,16.633 58.335,16.734 C 58.309,16.75 58.283,16.768 58.257,16.786 L 58.261,16.784 L 57.928,16.944 C 57.383,17.148 56.875,17.178 56.33,16.965 C 55.282,16.555 54.781,15.307 55.557,14.4 C 55.61,14.335 55.6,14.238 55.535,14.186 C 55.47,14.133 55.373,14.143 55.32,14.208 C 55.169,14.366 55.003,14.65 54.944,14.86 C 54.889,15.052 54.853,15.217 54.857,15.419 C 54.864,15.81 54.987,16.177 55.193,16.495 C 55.151,16.518 55.111,16.542 55.071,16.568 C 54.732,15.992 54.607,15.34 54.725,14.671 C 54.758,14.483 54.826,14.239 54.916,14.071 C 54.992,13.93 55.065,13.789 55.165,13.663 C 55.212,13.605 55.265,13.55 55.312,13.492 C 55.395,13.386 55.631,13.196 55.747,13.127 C 55.881,13.046 56.012,12.973 56.148,12.911 L 56.33,12.847 L 56.336,12.845 C 56.6,12.818 56.872,12.818 57.137,12.844 C 57.145,12.884 57.166,12.922 57.198,12.952 Z M 20.004,13.941 C 20.02,14.069 20.028,14.201 20.048,14.328 C 20.071,14.48 20.067,14.644 20.078,14.797 C 20.084,14.888 20.083,14.981 20.079,15.073 C 20.075,15.091 20.072,15.11 20.068,15.128 C 19.953,15.088 19.819,15.115 19.729,15.21 C 19.429,15.532 19.137,15.864 18.842,16.192 C 18.369,16.718 17.893,17.24 17.426,17.772 C 16.7,18.597 15.984,19.427 15.295,20.279 C 14.833,20.295 14.37,20.282 13.912,20.241 C 14.313,19.777 14.744,19.341 15.154,18.883 C 15.877,18.072 16.655,17.33 17.432,16.573 C 17.992,16.026 18.552,15.473 19.124,14.938 C 19.244,14.821 19.247,14.628 19.131,14.508 C 19.106,14.483 19.08,14.463 19.051,14.449 C 19.363,14.242 19.674,14.037 19.988,13.833 C 19.993,13.869 19.999,13.905 20.004,13.941 Z M 63.484,14.021 C 63.508,14.133 63.521,14.268 63.531,14.384 C 63.558,14.684 63.578,14.998 63.579,15.312 C 63.461,15.265 63.319,15.29 63.227,15.388 C 62.63,16.035 62.039,16.696 61.454,17.354 C 60.544,18.376 59.652,19.397 58.796,20.455 C 58.333,20.472 57.869,20.458 57.409,20.417 C 57.811,19.954 58.241,19.519 58.651,19.06 C 59.373,18.251 60.152,17.507 60.928,16.75 C 61.488,16.204 62.048,15.651 62.619,15.117 C 62.739,15.002 62.743,14.808 62.628,14.687 C 62.603,14.662 62.575,14.642 62.545,14.626 C 62.857,14.42 63.169,14.216 63.482,14.013 C 63.482,14.016 63.483,14.018 63.484,14.021 Z M 10.022,15.847 C 9.918,15.976 9.815,16.107 9.717,16.235 C 9.612,16.371 9.505,16.506 9.401,16.642 C 9.133,16.994 8.881,17.392 8.639,17.763 C 8.593,17.832 8.543,17.905 8.494,17.979 C 8.197,17.579 7.935,17.157 7.706,16.712 C 8.009,16.295 8.322,15.893 8.664,15.499 C 9.02,15.087 9.391,14.692 9.771,14.303 C 9.744,14.823 9.822,15.379 10.022,15.847 Z M 53.278,14.994 C 53.281,15.208 53.351,15.561 53.423,15.762 C 53.454,15.85 53.488,15.938 53.523,16.024 C 53.418,16.149 53.314,16.278 53.215,16.411 C 53.084,16.585 52.936,16.755 52.815,16.935 C 52.588,17.269 52.362,17.605 52.136,17.94 C 52.09,18.008 52.041,18.08 51.991,18.154 C 51.694,17.755 51.43,17.334 51.201,16.889 C 51.504,16.472 51.822,16.069 52.162,15.677 C 52.518,15.264 52.891,14.869 53.27,14.479 C 53.266,14.649 53.275,14.812 53.278,14.994 Z M 70.254,14.887 L 70.29,15.042 C 70.258,15.042 70.225,15.041 70.194,15.039 C 70.146,15.036 70.083,15.044 70.037,15.035 C 70.006,15.029 69.946,15.031 69.91,15.028 C 69.869,15.025 69.845,14.997 69.809,14.991 C 69.614,14.961 69.454,14.901 69.239,15.001 L 69.173,15.051 C 69.04,15.139 68.968,15.268 68.944,15.423 L 68.93,15.505 C 68.933,15.544 68.944,15.586 68.951,15.625 L 68.962,15.687 C 68.836,15.693 68.711,15.699 68.586,15.704 C 67.637,15.738 66.672,15.722 65.719,15.616 C 65.73,15.499 65.74,15.38 65.749,15.262 L 66.464,15.185 C 67.245,15.082 68.044,14.963 68.83,14.916 L 70.254,14.887 Z M 23.223,15.499 C 23.118,15.501 23.014,15.503 22.909,15.505 C 23.079,15.338 23.249,15.171 23.419,15.003 C 23.354,15.169 23.288,15.334 23.223,15.499 Z M 10.586,15.079 L 10.572,15.037 L 10.585,15.037 C 10.585,15.05 10.585,15.065 10.586,15.079 Z M 10.589,15.085 L 10.627,15.192 C 10.599,15.226 10.59,15.16 10.586,15.079 L 10.589,15.085 Z M 10.638,15.177 L 10.636,15.177 C 10.632,15.179 10.629,15.181 10.625,15.184 L 10.621,15.176 L 10.627,15.192 C 10.63,15.188 10.634,15.182 10.638,15.177 Z M 15.561,17.683 C 15.293,17.975 15.02,18.264 14.757,18.561 C 14.646,18.689 14.527,18.813 14.424,18.947 C 14.116,19.344 13.806,19.742 13.497,20.137 C 13.482,20.154 13.468,20.172 13.454,20.19 C 13.224,20.16 12.996,20.122 12.77,20.078 C 12.924,19.933 13.077,19.787 13.231,19.64 C 14.171,18.733 15.083,17.747 15.925,16.749 C 15.958,16.708 15.979,16.662 15.986,16.614 C 15.988,16.612 15.99,16.61 15.992,16.608 C 16.071,16.517 16.14,16.421 16.212,16.329 C 16.282,16.352 16.363,16.342 16.427,16.295 C 16.962,15.888 17.509,15.497 18.064,15.115 C 17.208,15.95 16.371,16.8 15.561,17.683 Z M 54.081,15.253 L 54.067,15.215 L 54.08,15.215 C 54.08,15.228 54.08,15.241 54.081,15.253 Z M 60.681,16.157 C 60.127,16.711 59.591,17.287 59.058,17.862 C 58.79,18.152 58.517,18.442 58.255,18.739 C 58.143,18.866 58.025,18.991 57.921,19.124 C 57.613,19.522 57.303,19.919 56.994,20.315 C 56.979,20.332 56.966,20.35 56.952,20.367 C 56.723,20.337 56.496,20.3 56.271,20.255 C 56.424,20.11 56.576,19.962 56.729,19.817 C 57.039,19.518 57.344,19.2 57.644,18.89 C 58.261,18.249 58.85,17.605 59.423,16.926 C 59.448,16.895 59.466,16.861 59.455,16.821 C 59.464,16.814 59.469,16.808 59.475,16.804 C 59.561,16.705 59.634,16.605 59.713,16.506 C 59.782,16.528 59.861,16.517 59.923,16.472 C 60.279,16.214 60.625,15.948 60.983,15.694 C 61.176,15.557 61.371,15.421 61.567,15.286 C 61.269,15.576 60.973,15.865 60.681,16.157 Z M 65.07,15.53 C 65.03,15.523 64.99,15.516 64.951,15.511 L 64.456,15.402 L 65.079,15.334 L 65.09,15.334 C 65.085,15.399 65.078,15.464 65.07,15.53 Z M 65.03,15.834 C 64.988,16.121 64.943,16.405 64.891,16.693 C 64.866,16.834 64.828,16.972 64.8,17.113 C 64.749,17.372 64.66,17.642 64.584,17.896 L 64.583,17.898 C 64.555,17.9 64.533,17.912 64.513,17.925 C 64.176,18.118 63.807,18.402 63.551,18.696 C 63.603,18.724 63.924,18.611 64.005,18.594 C 64.125,18.567 64.243,18.541 64.362,18.519 C 64.294,18.687 64.22,18.852 64.139,19.014 C 63.857,19.02 63.574,19.037 63.292,19.069 C 63.347,19.019 63.403,18.966 63.462,18.927 L 63.236,19.075 C 63.146,19.086 63.065,19.127 63.005,19.19 L 63.286,18.722 C 63.542,18.21 63.737,17.666 63.872,17.108 C 64.081,16.639 64.247,16.157 64.359,15.666 C 64.578,15.725 64.803,15.781 65.03,15.834 Z M 66.262,16.06 C 67.145,16.183 68.022,16.265 68.915,16.259 C 69.18,16.256 69.442,16.246 69.703,16.231 C 69.872,16.292 70.04,16.336 70.171,16.364 C 70.32,16.394 70.471,16.418 70.623,16.438 L 70.652,16.557 C 70.583,16.634 70.535,16.731 70.521,16.841 C 70.41,17.583 70.376,18.385 70.392,19.149 C 70.291,19.213 70.191,19.277 70.092,19.342 C 69.261,18.615 68.286,17.976 67.232,17.653 C 67.062,17.6 66.876,17.552 66.696,17.523 C 66.674,17.418 66.631,17.32 66.556,17.238 C 66.506,17.183 66.439,17.126 66.368,17.103 C 66.268,17.07 66.259,17.051 66.144,17.048 L 66.066,17.042 C 65.964,17.047 65.788,17.131 65.714,17.199 C 65.643,17.263 65.556,17.406 65.478,17.551 C 65.449,17.557 65.42,17.563 65.392,17.569 C 65.409,17.506 65.424,17.443 65.44,17.38 C 65.526,17.015 65.616,16.609 65.658,16.238 C 65.668,16.147 65.678,16.057 65.686,15.967 C 65.881,16.003 66.073,16.033 66.262,16.06 Z M 19.743,16.275 C 18.865,16.9 18.23,17.755 17.46,18.505 C 17.238,18.721 17.03,18.906 16.802,19.097 C 17.783,18.035 18.809,17.021 19.839,16.007 C 19.809,16.097 19.776,16.187 19.743,16.275 Z M 63.265,16.437 C 62.378,17.058 61.726,17.924 60.958,18.683 C 60.736,18.901 60.526,19.087 60.294,19.28 C 61.29,18.204 62.33,17.183 63.369,16.154 C 63.337,16.248 63.302,16.342 63.265,16.437 Z M 22.966,16.164 C 22.913,16.302 22.861,16.44 22.808,16.579 C 22.614,16.579 22.421,16.58 22.228,16.581 C 22.068,16.581 21.908,16.578 21.748,16.575 C 21.903,16.439 22.057,16.302 22.21,16.164 C 22.461,16.161 22.713,16.161 22.966,16.164 Z M 23.9,16.183 C 23.806,16.276 23.714,16.371 23.622,16.465 C 23.605,16.447 23.588,16.432 23.569,16.416 C 23.597,16.337 23.624,16.257 23.65,16.176 C 23.733,16.178 23.816,16.18 23.9,16.183 Z M 24.967,16.227 C 25.479,16.252 25.995,16.292 26.506,16.331 C 26.761,16.35 27.017,16.38 27.273,16.396 C 27.663,16.419 28.054,16.438 28.454,16.457 C 27.926,16.48 27.407,16.501 26.888,16.515 C 26.389,16.529 25.889,16.55 25.39,16.56 C 24.852,16.57 24.316,16.573 23.78,16.575 C 23.91,16.448 24.04,16.319 24.172,16.192 C 24.437,16.202 24.702,16.213 24.967,16.227 Z M 6.98,16.286 L 7.004,16.339 L 6.968,16.272 C 6.967,16.264 6.966,16.255 6.965,16.247 C 6.97,16.26 6.974,16.273 6.98,16.286 Z M 10.813,17.06 C 10.677,17.212 10.547,17.371 10.414,17.534 C 10.207,17.786 10.011,18.052 9.813,18.311 C 9.735,18.413 9.652,18.53 9.568,18.627 C 9.512,18.691 9.456,18.755 9.398,18.82 C 9.26,18.734 9.127,18.645 9.006,18.56 L 8.886,18.465 L 8.852,18.43 C 8.809,18.38 8.766,18.329 8.726,18.278 C 8.739,18.257 8.754,18.235 8.768,18.215 C 8.983,17.891 9.231,17.59 9.472,17.284 C 9.573,17.156 9.688,17.032 9.786,16.902 C 9.938,16.697 10.096,16.502 10.259,16.31 C 10.424,16.6 10.595,16.837 10.813,17.06 Z M 46.93,16.412 C 46.929,16.411 46.927,16.41 46.924,16.41 C 46.862,16.419 46.897,16.416 46.932,16.41 L 46.93,16.412 Z M 70.622,16.433 L 70.623,16.438 L 70.622,16.433 Z M 54.131,17.041 C 54.185,17.106 54.244,17.174 54.307,17.241 C 54.172,17.393 54.043,17.551 53.912,17.712 C 53.622,18.065 53.362,18.462 53.066,18.804 C 53.01,18.868 52.953,18.932 52.896,18.997 C 52.759,18.911 52.625,18.822 52.502,18.736 L 52.39,18.647 L 52.351,18.606 C 52.307,18.555 52.265,18.504 52.224,18.453 C 52.237,18.433 52.25,18.415 52.264,18.396 C 52.424,18.165 52.595,17.949 52.759,17.722 C 52.919,17.501 53.119,17.297 53.284,17.078 C 53.439,16.872 53.595,16.684 53.755,16.495 C 53.864,16.686 53.988,16.869 54.131,17.041 Z M 72.584,16.669 C 72.788,16.715 72.986,16.773 73.179,16.852 L 73.269,16.888 L 73.249,17.62 C 73.249,17.986 73.259,18.351 73.277,18.725 C 73.291,19.001 73.335,19.282 73.361,19.558 C 73.4,19.96 73.422,20.314 73.401,20.716 C 73.383,21.039 73.249,21.446 73.026,21.684 C 72.842,21.88 72.683,22.03 72.451,22.175 C 72.442,22.18 72.435,22.185 72.426,22.19 C 72.466,22.045 72.481,21.884 72.469,21.737 C 72.437,21.406 72.323,21.129 72.154,20.891 C 72.063,20.227 71.949,19.564 71.814,18.916 C 71.715,18.443 71.616,17.965 71.496,17.498 C 71.514,17.323 71.533,17.149 71.566,16.979 C 71.589,16.798 71.517,16.625 71.388,16.512 C 71.792,16.545 72.194,16.579 72.584,16.669 Z M 12.751,17.194 C 12.527,17.169 12.305,17.107 12.09,17.006 C 12.008,16.939 11.933,16.867 11.863,16.789 C 11.903,16.768 11.943,16.748 11.984,16.731 C 11.997,16.723 12.008,16.715 12.02,16.706 C 12.234,16.918 12.484,17.088 12.751,17.194 Z M 55.975,17.234 C 56.054,17.28 56.137,17.322 56.219,17.359 C 56.088,17.343 55.96,17.317 55.837,17.283 C 55.754,17.259 55.675,17.229 55.599,17.194 C 55.517,17.127 55.435,17.047 55.361,16.966 C 55.401,16.944 55.442,16.925 55.482,16.907 C 55.494,16.901 55.505,16.894 55.515,16.886 C 55.652,17.019 55.807,17.136 55.975,17.234 Z M 20.39,16.981 C 20.552,16.984 20.715,16.989 20.877,16.995 C 20.706,17.155 20.536,17.316 20.368,17.478 C 20.295,17.547 20.224,17.616 20.151,17.686 C 20.233,17.452 20.304,17.215 20.363,16.978 C 20.371,16.98 20.38,16.98 20.39,16.981 Z M 25.691,17.441 C 25.41,17.707 25.1,17.953 24.795,18.191 C 24.257,18.609 23.657,18.989 23.092,19.371 C 22.837,19.543 22.586,19.717 22.341,19.893 C 22.367,19.857 22.392,19.822 22.418,19.788 C 22.561,19.593 22.707,19.399 22.834,19.192 C 22.903,19.08 22.981,18.964 23.044,18.85 C 23.094,18.76 23.142,18.664 23.196,18.578 C 23.305,18.401 23.39,18.18 23.473,17.99 C 23.536,17.848 23.623,17.632 23.656,17.482 C 23.675,17.395 23.701,17.307 23.72,17.22 C 23.732,17.163 23.739,17.103 23.747,17.043 C 23.754,17.042 23.761,17.043 23.768,17.043 C 24.548,17.042 25.334,17.032 26.119,17.012 C 25.978,17.155 25.839,17.302 25.691,17.441 Z M 22.264,17.03 C 22.384,17.03 22.505,17.032 22.626,17.033 C 22.599,17.097 22.571,17.16 22.543,17.224 C 22.429,17.478 22.308,17.728 22.184,17.977 C 21.817,18.375 21.45,18.771 21.092,19.177 C 20.912,19.382 20.726,19.578 20.553,19.789 C 20.25,20.157 19.937,20.516 19.636,20.885 C 19.16,21.467 18.686,22.05 18.207,22.636 C 18.038,22.774 17.863,22.912 17.681,23.042 C 17.511,23.164 17.337,23.287 17.169,23.41 C 16.975,23.553 16.747,23.7 16.539,23.822 C 16.034,24.116 15.575,24.376 15.05,24.544 L 14.514,24.674 L 13.872,24.728 C 13.202,24.762 12.52,24.731 11.867,24.634 C 11.326,24.554 10.822,24.45 10.291,24.319 C 9.817,24.202 9.332,24.039 8.876,23.866 C 8.337,23.663 7.85,23.424 7.339,23.161 C 7.125,23.05 6.916,22.911 6.708,22.789 C 6.432,22.626 6.159,22.453 5.896,22.269 C 5.032,21.309 4.407,20.235 3.891,19.013 C 3.808,18.814 3.728,18.62 3.653,18.425 C 3.746,18.432 3.839,18.439 3.931,18.451 C 4.544,18.525 5.149,18.624 5.754,18.738 C 6.199,18.822 6.645,18.904 7.091,18.99 C 7.659,19.888 8.455,20.647 9.383,21.213 C 9.697,21.406 10.048,21.604 10.388,21.744 C 10.527,21.802 10.666,21.867 10.804,21.922 C 11.1,22.04 11.421,22.137 11.735,22.206 C 12.173,22.304 12.57,22.338 13.016,22.358 C 13.77,22.39 14.521,22.223 15.235,21.997 C 15.397,21.944 15.556,21.874 15.712,21.799 C 15.715,21.799 15.718,21.798 15.721,21.798 C 16.004,21.734 16.229,21.668 16.503,21.572 C 16.617,21.531 16.756,21.482 16.864,21.427 C 16.972,21.371 17.087,21.324 17.194,21.267 C 17.319,21.201 17.444,21.121 17.568,21.049 C 17.635,21.011 17.702,20.959 17.765,20.914 C 18.085,20.688 18.367,20.453 18.642,20.174 C 18.873,19.939 19.085,19.682 19.276,19.408 L 19.398,19.201 L 19.513,19.121 C 19.578,19.066 19.649,19.016 19.715,18.962 C 19.796,18.896 19.879,18.808 19.964,18.75 L 19.474,19.074 L 19.788,18.544 C 19.809,18.499 19.831,18.455 19.879,18.296 C 19.891,18.281 19.904,18.268 19.918,18.256 C 20.359,17.834 20.805,17.414 21.26,17.006 C 21.595,17.017 21.93,17.027 22.264,17.03 Z M 4.836,17.124 L 4.103,17.335 C 3.894,17.395 3.699,17.42 3.489,17.454 L 3.402,17.459 L 3.461,17.413 C 3.682,17.278 3.93,17.224 4.2,17.176 C 4.316,17.155 4.433,17.141 4.551,17.133 L 4.836,17.124 Z M 17.343,19.727 L 16.868,20.099 C 16.508,20.171 16.144,20.22 15.777,20.251 C 16.011,19.975 16.249,19.702 16.495,19.432 C 16.536,19.387 16.578,19.341 16.618,19.296 C 16.605,19.352 16.615,19.415 16.654,19.464 C 16.719,19.548 16.842,19.561 16.925,19.496 C 17.053,19.375 17.22,19.264 17.356,19.141 C 17.635,18.889 17.908,18.619 18.17,18.348 C 18.521,17.983 18.868,17.637 19.236,17.289 C 19.259,17.267 19.282,17.245 19.306,17.223 C 18.788,18.183 18.085,19.049 17.343,19.727 Z M 11.309,17.489 C 11.415,17.569 11.573,17.663 11.695,17.716 C 11.816,17.769 11.929,17.814 12.052,17.863 C 12.131,17.893 12.218,17.918 12.309,17.938 C 12.205,18.06 12.099,18.18 11.987,18.296 C 11.753,18.54 11.499,18.779 11.278,19.032 C 11.132,19.198 10.991,19.363 10.851,19.53 C 10.832,19.522 10.812,19.515 10.791,19.508 C 10.518,19.404 10.262,19.275 9.999,19.152 C 9.905,19.108 9.809,19.058 9.712,19.004 C 9.744,18.966 9.774,18.929 9.803,18.894 C 10.015,18.636 10.227,18.378 10.438,18.118 C 10.639,17.868 10.871,17.594 11.126,17.346 C 11.183,17.393 11.245,17.44 11.309,17.489 Z M 60.841,19.906 L 60.367,20.276 C 60.007,20.348 59.643,20.397 59.276,20.427 C 59.509,20.152 59.747,19.88 59.992,19.61 C 60.034,19.563 60.076,19.518 60.117,19.472 C 60.102,19.528 60.114,19.591 60.152,19.642 C 60.217,19.725 60.34,19.739 60.423,19.674 C 60.551,19.553 60.718,19.44 60.854,19.319 C 61.134,19.068 61.407,18.795 61.667,18.525 C 62.017,18.161 62.367,17.815 62.734,17.467 C 62.762,17.44 62.791,17.413 62.822,17.385 C 62.295,18.351 61.587,19.224 60.841,19.906 Z M 6.415,18.058 L 6.76,18.461 C 6.565,18.424 6.369,18.387 6.174,18.351 C 5.278,18.187 4.417,18.077 3.518,18.064 C 3.509,18.039 3.5,18.015 3.492,17.991 C 3.673,17.987 3.929,17.955 4.106,17.92 C 4.392,17.864 4.689,17.832 4.976,17.766 C 5.335,17.682 5.699,17.61 6.057,17.526 C 6.059,17.525 6.062,17.524 6.065,17.524 C 6.172,17.706 6.289,17.885 6.415,18.058 Z M 54.744,17.626 C 54.945,17.761 55.116,17.864 55.339,17.962 C 55.486,18.027 55.644,18.077 55.809,18.114 C 55.703,18.235 55.597,18.357 55.484,18.474 C 55.249,18.717 54.996,18.958 54.775,19.211 C 54.629,19.376 54.489,19.542 54.351,19.708 C 54.33,19.7 54.309,19.692 54.287,19.685 C 54.015,19.581 53.758,19.452 53.495,19.328 C 53.402,19.285 53.306,19.235 53.21,19.182 C 53.241,19.144 53.272,19.107 53.301,19.072 C 53.513,18.814 53.724,18.555 53.936,18.296 C 54.136,18.049 54.364,17.777 54.616,17.532 C 54.658,17.566 54.701,17.597 54.744,17.626 Z M 14.005,18.157 C 13.778,18.429 13.526,18.691 13.287,18.955 C 12.968,19.307 12.636,19.644 12.295,19.974 C 12.073,19.92 11.852,19.859 11.631,19.793 C 11.524,19.761 11.413,19.735 11.31,19.696 C 11.301,19.692 11.292,19.689 11.283,19.687 C 11.42,19.551 11.559,19.415 11.706,19.276 C 12.136,18.864 12.547,18.426 12.976,18.013 C 12.982,18.013 12.988,18.013 12.994,18.014 C 13.059,18.016 13.128,18.006 13.192,18.008 C 13.246,18.01 13.308,18 13.363,17.995 C 13.411,17.989 13.461,17.983 13.517,17.963 C 13.623,17.993 13.723,17.977 13.821,17.954 C 13.944,17.924 14.094,17.898 14.21,17.849 C 14.235,17.837 14.262,17.829 14.291,17.819 C 14.194,17.931 14.098,18.043 14.005,18.157 Z M 8.377,18.751 L 8.608,18.91 L 8.615,18.919 C 8.467,18.852 8.321,18.793 8.167,18.744 C 8.086,18.671 8.003,18.595 7.923,18.52 L 7.537,18.121 L 7.403,17.885 C 7.394,17.865 7.386,17.846 7.377,17.827 C 7.678,18.163 8.015,18.471 8.377,18.751 Z M 57.504,18.333 C 57,18.925 56.443,19.514 55.891,20.061 C 55.86,20.091 55.829,20.121 55.798,20.152 C 55.574,20.098 55.35,20.037 55.127,19.97 C 55.02,19.938 54.91,19.912 54.806,19.873 C 54.796,19.869 54.786,19.865 54.778,19.862 C 54.917,19.725 55.059,19.591 55.203,19.455 C 55.637,19.04 56.051,18.598 56.484,18.182 C 56.486,18.179 56.489,18.176 56.487,18.172 C 56.569,18.19 56.651,18.188 56.735,18.183 C 57.082,18.189 57.457,18.13 57.752,18.011 C 57.764,18.005 57.777,18 57.792,17.996 C 57.696,18.108 57.599,18.221 57.504,18.333 Z M 51.873,18.927 L 52.132,19.106 L 52.392,19.42 C 52.476,19.508 52.562,19.595 52.65,19.681 C 52.484,19.572 52.321,19.458 52.168,19.337 C 51.979,19.186 51.799,19.035 51.614,18.879 C 51.46,18.749 51.315,18.594 51.174,18.449 L 50.987,18.232 L 50.901,18.063 C 50.89,18.042 50.88,18.021 50.871,18 C 51.172,18.338 51.51,18.648 51.873,18.927 Z M 49.287,19.45 C 49.47,19.708 49.691,19.952 49.908,20.182 C 50.309,20.608 50.761,21.011 51.231,21.359 C 51.413,21.494 51.595,21.632 51.786,21.754 C 52.017,21.903 52.248,22.035 52.484,22.173 C 52.666,22.28 52.877,22.381 53.07,22.469 C 53.525,22.675 53.968,22.848 54.445,23.001 C 56.389,23.622 58.493,23.713 60.448,23.095 C 60.912,22.948 61.381,22.731 61.804,22.492 C 62.598,22.041 63.27,21.452 63.823,20.766 C 63.799,20.81 63.776,20.852 63.754,20.896 C 63.551,21.271 63.348,21.663 63.123,22.024 C 62.907,22.369 62.684,22.705 62.449,23.028 C 62.109,23.195 61.773,23.351 61.45,23.552 C 61.129,23.752 60.856,23.974 60.56,24.206 C 60.34,24.379 60.123,24.557 59.909,24.736 C 59.672,24.935 59.429,25.128 59.192,25.328 C 59.079,25.423 58.966,25.52 58.855,25.618 C 58.235,25.728 57.6,25.769 56.965,25.752 C 57.006,25.674 57.045,25.592 57.082,25.512 C 56.865,25.538 56.689,25.62 56.53,25.731 C 56.02,25.697 55.512,25.625 55.015,25.523 C 55.065,25.454 55.066,25.357 55.012,25.287 C 54.946,25.203 54.822,25.188 54.738,25.254 C 54.668,25.307 54.598,25.359 54.528,25.413 C 54.131,25.314 53.743,25.195 53.367,25.06 C 52.5,24.749 51.566,24.292 50.829,23.734 C 50.716,23.649 50.602,23.566 50.489,23.481 C 50.389,23.405 50.294,23.313 50.197,23.233 C 49.963,23.038 49.65,22.727 49.434,22.454 C 49.524,22.394 49.549,22.271 49.491,22.179 C 49.432,22.087 49.307,22.061 49.215,22.12 C 49.209,22.123 49.203,22.127 49.197,22.13 C 49.157,22.076 49.117,22.023 49.081,21.97 C 48.988,21.837 48.905,21.684 48.826,21.542 C 48.42,20.804 48.269,19.982 48.375,19.151 C 48.386,19.07 48.405,18.992 48.416,18.914 C 48.445,18.702 48.463,18.496 48.549,18.296 C 48.558,18.267 48.563,18.237 48.564,18.208 C 48.765,18.639 49.005,19.051 49.287,19.45 Z M 21.703,18.879 C 21.508,19.212 21.305,19.536 21.058,19.831 C 20.87,20.072 20.656,20.29 20.462,20.523 C 20.274,20.748 20.047,20.959 19.844,21.173 C 19.583,21.448 19.275,21.732 18.985,21.978 C 18.812,22.124 18.642,22.272 18.47,22.417 C 18.95,21.836 19.436,21.258 19.937,20.696 C 20.298,20.29 20.668,19.891 21.029,19.486 C 21.317,19.16 21.609,18.832 21.911,18.515 C 21.843,18.638 21.772,18.76 21.703,18.879 Z M 3.263,18.578 L 3.263,18.587 C 3.287,18.659 3.311,18.73 3.337,18.801 C 3.418,19.023 3.505,19.242 3.599,19.458 C 3.557,19.48 3.519,19.513 3.492,19.552 C 3.392,19.348 3.304,19.138 3.229,18.924 C 3.237,18.851 3.245,18.777 3.253,18.704 L 3.263,18.578 Z M 67.775,19.073 L 68.069,19.242 L 67.316,19.156 C 67.06,19.131 66.806,19.112 66.556,19.094 C 66.587,18.947 66.615,18.798 66.643,18.647 C 67.044,18.747 67.407,18.885 67.775,19.073 Z M 8.741,19.077 L 8.758,19.096 C 8.888,19.238 9.021,19.372 9.156,19.504 C 9.023,19.416 8.893,19.324 8.673,19.112 C 8.705,19.119 8.728,19.101 8.741,19.077 Z M 62.98,19.245 L 62.969,19.253 L 62.99,19.218 L 62.916,19.343 C 62.914,19.35 62.912,19.356 62.98,19.245 Z M 70.404,19.502 C 70.405,19.546 70.407,19.59 70.409,19.635 L 70.291,19.521 C 70.272,19.503 70.254,19.486 70.234,19.469 C 70.288,19.407 70.342,19.345 70.396,19.283 C 70.398,19.356 70.4,19.429 70.404,19.502 Z M 71.497,20.287 C 71.441,20.251 71.383,20.217 71.325,20.184 C 71.328,20.041 71.331,19.899 71.336,19.757 C 71.338,19.668 71.342,19.58 71.346,19.49 C 71.399,19.756 71.449,20.022 71.497,20.287 Z M 10.457,19.93 L 10.507,19.952 C 10.505,19.955 10.502,19.958 10.5,19.961 L 10.457,19.93 Z M 47.254,21.613 C 47.246,21.778 47.239,21.943 47.232,22.109 C 47.123,22.176 47.014,22.244 46.905,22.313 C 46.877,22.069 46.849,21.824 46.821,21.58 C 46.813,21.51 46.782,21.447 46.737,21.398 C 46.731,21.025 46.725,20.651 46.719,20.279 C 46.718,20.24 46.709,20.203 46.695,20.17 C 46.782,20.094 46.87,20.018 46.96,19.942 C 46.931,20.519 47.043,21.081 47.254,21.613 Z M 3.237,20.286 C 3.271,20.35 3.306,20.416 3.343,20.482 C 3.321,20.676 3.3,20.871 3.279,21.066 C 3.11,22.587 2.977,24.096 2.861,25.623 C 2.755,27.012 2.67,28.402 2.607,29.793 C 2.593,30.101 2.577,30.409 2.563,30.711 C 2.53,29.558 2.494,28.399 2.456,27.239 C 2.461,27.184 2.465,27.129 2.47,27.075 C 2.523,26.446 2.542,25.813 2.589,25.183 C 2.647,24.386 2.731,23.59 2.808,22.795 C 2.896,21.872 3.004,20.951 3.108,20.031 C 3.149,20.117 3.193,20.202 3.237,20.286 Z M 68.168,20.283 C 68.347,20.318 68.523,20.356 68.698,20.397 C 68.41,20.649 68.127,20.911 67.847,21.157 C 66.917,21.974 65.995,22.803 65.084,23.639 C 63.354,25.226 61.662,26.873 60.064,28.594 C 59.134,29.594 58.217,30.602 57.344,31.649 C 56.878,31.649 56.412,31.654 55.94,31.664 C 55.766,31.648 55.586,31.632 55.406,31.617 C 55.63,31.416 55.852,31.213 56.075,31.008 C 57.541,29.649 58.953,28.229 60.413,26.863 C 60.724,26.571 61.037,26.279 61.348,25.991 C 61.473,25.932 61.595,25.872 61.717,25.808 C 61.727,25.802 61.737,25.796 61.747,25.791 C 61.943,25.68 62.129,25.561 62.32,25.443 L 62.39,25.392 C 62.467,25.334 62.553,25.271 62.624,25.206 C 62.8,25.142 62.956,25.027 63.109,24.908 C 63.491,24.607 63.842,24.274 64.166,23.912 C 64.237,23.833 64.314,23.757 64.379,23.673 C 64.477,23.547 64.593,23.422 64.686,23.294 C 64.816,23.111 64.941,22.932 65.06,22.749 C 65.141,22.683 65.221,22.617 65.303,22.552 C 65.327,22.535 65.333,22.5 65.316,22.475 C 65.298,22.451 65.263,22.445 65.239,22.463 C 65.216,22.475 65.193,22.489 65.172,22.504 C 65.367,22.264 65.519,21.996 65.662,21.71 C 65.818,21.396 65.981,21.061 66.098,20.73 C 66.186,20.477 66.265,20.23 66.335,19.987 C 66.949,20.06 67.561,20.158 68.168,20.283 Z M 11.856,20.392 C 11.775,20.47 11.692,20.547 11.61,20.623 L 11.253,20.445 C 11.179,20.402 11.105,20.367 11.034,20.319 C 10.962,20.272 10.887,20.226 10.814,20.18 C 10.838,20.152 10.862,20.126 10.886,20.1 C 11.208,20.213 11.527,20.305 11.856,20.392 Z M 53.954,20.107 L 54.006,20.129 C 54.003,20.133 54,20.136 53.998,20.14 L 53.954,20.107 Z M 4.243,20.733 C 4.188,20.66 4.133,20.588 4.082,20.519 C 4.04,20.463 3.999,20.407 3.959,20.35 C 3.964,20.315 3.969,20.279 3.974,20.243 C 4.059,20.408 4.15,20.571 4.243,20.733 Z M 55.357,20.571 C 55.275,20.648 55.191,20.725 55.108,20.802 L 54.749,20.621 C 54.676,20.579 54.601,20.544 54.53,20.496 C 54.457,20.448 54.382,20.401 54.306,20.354 C 54.329,20.327 54.353,20.301 54.377,20.275 C 54.702,20.388 55.024,20.482 55.357,20.571 Z M 47.799,20.777 C 47.721,20.567 47.686,20.349 47.679,20.121 C 47.703,20.351 47.737,20.574 47.799,20.777 Z M 16.404,20.461 L 16.182,20.635 L 15.3,21.109 L 14.99,21.212 C 15.137,21.027 15.286,20.844 15.435,20.661 C 15.737,20.628 16.035,20.582 16.323,20.524 L 16.404,20.461 Z M 13.121,20.635 C 13.122,20.635 13.123,20.635 13.125,20.635 C 13.073,20.697 13.038,20.747 13.005,20.796 C 12.945,20.877 12.961,20.993 13.041,21.053 C 13.122,21.113 13.238,21.098 13.299,21.017 C 13.378,20.904 13.461,20.793 13.545,20.684 C 13.998,20.724 14.478,20.729 14.957,20.701 C 14.813,20.883 14.67,21.067 14.528,21.252 C 14.472,21.223 14.41,21.209 14.345,21.21 C 14.232,21.209 14.114,21.218 14.003,21.212 C 13.796,21.199 13.599,21.187 13.393,21.166 C 13.137,21.14 12.829,21.084 12.582,21.017 C 12.502,20.995 12.421,20.975 12.341,20.954 L 12.027,20.834 L 11.976,20.809 L 11.982,20.811 C 12.092,20.71 12.202,20.609 12.311,20.507 C 12.577,20.562 12.857,20.596 13.121,20.635 Z M 69.257,20.532 C 69.393,20.566 69.556,20.607 69.687,20.654 L 69.992,20.755 L 70.282,21.046 C 70.351,21.118 70.42,21.192 70.487,21.266 C 70.504,21.477 70.52,21.69 70.538,21.903 C 70.51,21.933 70.485,21.966 70.464,22.004 C 69.944,22.926 69.645,23.98 69.602,25.041 C 69.396,25.237 69.191,25.432 68.984,25.626 C 68.129,26.422 67.238,27.188 66.36,27.958 C 64.994,29.155 63.627,30.346 62.349,31.631 C 62.192,31.674 62.035,31.714 61.871,31.746 C 61.242,31.722 60.613,31.701 59.986,31.685 C 61.583,29.768 63.386,28.006 65.235,26.343 C 65.86,25.781 66.507,25.246 67.14,24.694 C 68.21,23.765 69.313,22.868 70.42,21.982 C 70.52,21.902 70.535,21.752 70.454,21.652 C 70.374,21.552 70.224,21.537 70.124,21.617 C 68.897,22.615 67.647,23.606 66.47,24.663 C 65.602,25.443 64.754,26.255 63.926,27.076 C 63.038,27.957 62.155,28.86 61.328,29.797 C 60.779,30.419 60.232,31.04 59.705,31.679 C 59.011,31.662 58.318,31.651 57.624,31.65 C 58.072,31.126 58.534,30.615 59.001,30.112 C 61.16,27.779 63.521,25.671 65.849,23.514 C 66.273,23.122 66.71,22.737 67.141,22.355 C 67.563,21.981 67.979,21.599 68.406,21.231 C 68.639,21.03 68.866,20.823 69.098,20.622 C 69.136,20.588 69.175,20.555 69.214,20.521 C 69.228,20.524 69.242,20.528 69.257,20.532 Z M 59.845,20.683 L 59.825,20.7 L 59.823,20.7 L 59.845,20.683 Z M 56.618,20.812 L 56.623,20.812 C 56.571,20.875 56.536,20.924 56.503,20.974 C 56.442,21.054 56.458,21.171 56.538,21.231 C 56.619,21.291 56.736,21.276 56.796,21.195 C 56.875,21.08 56.958,20.97 57.043,20.861 C 57.498,20.901 57.979,20.906 58.46,20.877 C 58.314,21.06 58.17,21.245 58.028,21.43 C 57.971,21.403 57.909,21.387 57.843,21.388 C 57.507,21.385 57.194,21.386 56.858,21.342 C 56.634,21.311 56.419,21.261 56.198,21.223 C 56.092,21.205 55.976,21.171 55.872,21.145 L 55.523,21.011 L 55.485,20.991 C 55.532,20.949 55.578,20.907 55.625,20.865 C 55.689,20.805 55.753,20.746 55.817,20.685 C 56.08,20.74 56.356,20.773 56.618,20.812 Z M 59.823,20.7 L 59.673,20.819 L 59.355,21.011 C 59.088,21.15 58.763,21.324 58.473,21.412 C 58.626,21.218 58.78,21.027 58.935,20.837 C 59.237,20.804 59.535,20.758 59.823,20.7 Z M 47.425,21.996 C 47.417,22 47.41,22.004 47.403,22.007 C 47.401,21.986 47.4,21.965 47.398,21.943 C 47.407,21.961 47.416,21.978 47.425,21.996 Z M 71.48,22.373 C 71.552,22.454 71.642,22.508 71.739,22.537 C 71.621,22.587 71.503,22.636 71.384,22.684 C 71.376,22.687 71.368,22.69 71.36,22.694 C 71.354,22.537 71.348,22.38 71.344,22.223 C 71.389,22.273 71.434,22.323 71.48,22.373 Z M 48.087,23.033 C 47.942,23.175 47.8,23.321 47.66,23.469 C 47.602,23.53 47.543,23.59 47.483,23.649 C 47.483,23.63 47.482,23.612 47.482,23.595 C 47.467,23.169 47.446,22.745 47.422,22.321 C 47.464,22.293 47.507,22.265 47.551,22.237 C 47.707,22.513 47.888,22.78 48.087,23.033 Z M 47.186,23.844 C 47.185,23.878 47.185,23.913 47.184,23.947 C 47.168,23.963 47.152,23.98 47.136,23.997 C 47.123,24.01 47.11,24.023 47.096,24.036 C 47.047,23.567 46.995,23.1 46.942,22.633 C 47.034,22.572 47.128,22.513 47.22,22.453 C 47.203,22.915 47.19,23.379 47.186,23.844 Z M 73.122,23.18 C 73.085,23.746 73.086,24.322 72.975,24.879 C 72.901,25.254 72.782,25.651 72.529,25.939 C 72.511,24.975 72.464,24.013 72.388,23.046 C 72.639,22.934 72.917,22.786 73.138,22.632 C 73.133,22.814 73.133,23 73.122,23.18 Z M 72.023,24.431 C 72.074,25.037 72.088,25.651 72.109,26.261 C 72.1,26.265 72.091,26.27 72.082,26.274 C 71.993,26.312 71.902,26.362 71.81,26.392 C 71.721,26.42 71.634,26.447 71.546,26.469 C 71.501,25.585 71.451,24.701 71.41,23.819 C 71.403,23.686 71.396,23.553 71.39,23.42 C 71.568,23.361 71.744,23.299 71.92,23.233 C 71.959,23.634 71.99,24.037 72.023,24.431 Z M 60.12,25.235 L 59.883,25.357 L 59.799,25.387 C 60.006,25.217 60.213,25.047 60.42,24.877 C 60.786,24.577 61.176,24.293 61.528,23.979 C 61.838,23.701 62.113,23.396 62.4,23.095 C 61.77,23.946 61.044,24.694 60.12,25.235 Z M 49.181,24.153 C 49.262,24.221 49.347,24.291 49.433,24.36 C 49.198,24.542 48.966,24.739 48.762,24.925 C 48.323,25.322 47.898,25.744 47.529,26.206 C 47.529,26.18 47.529,26.153 47.528,26.127 C 47.592,26.079 47.656,26.03 47.72,25.982 C 47.78,25.936 47.792,25.848 47.747,25.787 C 47.701,25.727 47.613,25.715 47.553,25.76 C 47.543,25.766 47.534,25.773 47.526,25.78 C 47.519,25.205 47.51,24.631 47.495,24.058 C 47.776,23.817 48.057,23.574 48.334,23.33 C 48.596,23.628 48.883,23.903 49.181,24.153 Z M 70.949,26.58 L 70.926,26.583 L 70.906,26.587 L 70.668,26.524 L 70.653,26.477 L 70.653,26.475 C 70.698,26.439 70.744,26.403 70.79,26.368 C 70.872,26.303 70.885,26.181 70.819,26.1 C 70.755,26.02 70.638,26.006 70.557,26.066 C 70.447,25.35 70.495,24.54 70.7,23.839 C 70.782,24.756 70.871,25.667 70.949,26.58 Z M 47.184,24.856 C 47.166,24.691 47.149,24.528 47.132,24.365 C 47.149,24.352 47.165,24.338 47.182,24.325 C 47.181,24.501 47.182,24.678 47.184,24.856 Z M 50.385,25.03 C 50.404,25.04 50.422,25.051 50.441,25.062 C 50.411,25.085 50.383,25.108 50.356,25.131 C 50.132,25.316 49.91,25.505 49.683,25.687 C 49.569,25.78 49.462,25.891 49.351,25.989 C 49.104,26.211 48.874,26.443 48.637,26.675 C 48.247,27.057 47.896,27.492 47.545,27.911 C 47.544,27.835 47.543,27.758 47.543,27.682 C 47.539,27.325 47.536,26.969 47.533,26.612 C 47.923,26.091 48.399,25.624 48.883,25.227 C 49.154,25.003 49.426,24.783 49.709,24.576 C 49.929,24.743 50.157,24.901 50.385,25.03 Z M 51.421,25.595 C 50.844,26.126 50.276,26.674 49.733,27.229 C 49.357,27.612 48.974,28.018 48.642,28.441 C 48.474,28.656 48.317,28.874 48.152,29.09 C 48.094,29.164 48.033,29.269 47.985,29.352 C 47.861,29.561 47.748,29.76 47.64,29.969 C 47.613,29.595 47.584,29.222 47.554,28.848 C 47.552,28.687 47.55,28.527 47.549,28.367 C 47.558,28.356 47.566,28.346 47.575,28.336 C 47.866,27.992 48.148,27.668 48.456,27.338 C 49.164,26.58 49.93,25.874 50.759,25.251 C 50.975,25.371 51.197,25.487 51.421,25.595 Z M 69.624,25.894 C 69.646,26.145 69.692,26.443 69.76,26.711 C 69.36,27.033 68.961,27.354 68.565,27.683 C 67.705,28.398 66.855,29.137 66.023,29.894 C 65.989,29.861 65.947,29.837 65.899,29.825 C 65.738,29.78 65.569,29.875 65.524,30.036 C 65.477,30.178 65.435,30.324 65.395,30.472 C 65.055,30.788 64.72,31.107 64.389,31.428 C 64.253,31.558 64.122,31.699 63.992,31.841 C 63.797,31.832 63.604,31.822 63.411,31.811 C 63.361,31.807 63.31,31.804 63.261,31.802 C 63.269,31.76 63.268,31.715 63.258,31.673 C 63.219,31.523 63.065,31.435 62.915,31.474 C 62.845,31.492 62.776,31.512 62.708,31.53 C 64.28,29.994 65.999,28.6 67.684,27.2 C 68.21,26.762 68.736,26.318 69.252,25.869 C 69.369,25.766 69.486,25.662 69.601,25.558 C 69.606,25.67 69.613,25.782 69.624,25.894 Z M 53.357,26.341 C 53.033,26.606 52.714,26.875 52.4,27.146 C 51.75,27.708 51.086,28.287 50.497,28.914 C 49.893,29.557 49.315,30.272 48.807,30.993 C 48.574,31.324 48.356,31.661 48.134,31.999 C 48.102,32.047 48.117,32.114 48.165,32.146 C 48.214,32.179 48.281,32.164 48.313,32.115 C 49.023,30.946 49.964,29.905 50.941,28.955 C 51.839,28.081 52.787,27.281 53.774,26.51 C 53.789,26.497 53.806,26.484 53.821,26.472 C 54.322,26.603 54.831,26.706 55.342,26.778 C 55.199,26.907 55.055,27.035 54.913,27.164 C 54.489,27.542 54.075,27.926 53.664,28.315 C 53.437,28.34 53.213,28.36 52.986,28.382 C 52.813,28.399 52.682,28.521 52.641,28.686 L 52.628,28.731 C 52.598,28.664 52.574,28.585 52.565,28.526 C 52.546,28.447 52.463,28.4 52.385,28.419 C 52.306,28.438 52.259,28.521 52.278,28.6 C 52.356,28.838 52.404,29.036 52.582,29.23 C 52.601,29.251 52.623,29.272 52.644,29.293 C 52.457,29.471 52.269,29.653 52.096,29.84 C 51.932,30.015 51.775,30.197 51.613,30.374 C 51.505,30.491 51.394,30.604 51.286,30.721 C 51.086,30.94 50.905,31.176 50.714,31.403 C 50.582,31.56 50.444,31.725 50.314,31.89 C 50.304,31.893 50.293,31.896 50.282,31.9 L 50.288,31.925 C 50.251,31.973 50.215,32.019 50.181,32.067 C 50.132,32.127 50.142,32.218 50.202,32.268 C 50.262,32.317 50.353,32.308 50.403,32.247 C 50.515,32.112 50.624,31.97 50.74,31.836 C 51.27,31.714 51.8,31.643 52.334,31.609 C 52.205,31.726 52.076,31.843 51.948,31.96 C 51.86,31.978 51.773,31.997 51.689,32.02 C 51.301,32.125 50.931,32.199 50.593,32.43 C 50.491,32.5 50.381,32.594 50.333,32.709 C 50.266,32.864 50.262,33.319 50.252,33.511 C 50.162,33.635 50.076,33.763 49.978,33.878 C 49.714,34.19 49.457,34.498 49.175,34.794 C 48.91,35.071 48.649,35.342 48.398,35.62 C 48.383,35.019 48.371,34.419 48.369,33.817 C 48.321,34.309 48.264,34.798 48.222,35.291 C 48.205,35.483 48.19,35.677 48.176,35.871 C 48.103,35.956 48.031,36.041 47.961,36.127 C 47.907,34.208 47.806,32.285 47.669,30.365 C 47.674,30.359 47.679,30.353 47.683,30.346 C 47.843,29.99 48.034,29.692 48.247,29.366 C 48.802,28.518 49.519,27.783 50.251,27.088 C 50.722,26.642 51.222,26.197 51.725,25.786 C 51.738,25.775 51.752,25.763 51.766,25.752 C 52.291,25.981 52.808,26.176 53.357,26.341 Z M 73.656,25.833 L 73.646,26.175 C 73.635,26.314 73.616,26.454 73.587,26.594 C 73.573,26.658 73.535,26.763 73.496,26.842 L 73.467,26.894 L 73.059,26.945 C 72.966,26.952 72.873,26.957 72.781,26.957 L 72.757,26.955 L 72.915,26.848 C 73.076,26.724 73.221,26.579 73.346,26.406 C 73.439,26.276 73.516,26.148 73.58,26.018 L 73.656,25.833 Z M 59.314,27.37 C 57.983,28.723 56.652,30.073 55.27,31.372 C 55.191,31.444 55.113,31.516 55.035,31.588 C 54.29,31.534 53.552,31.504 52.814,31.531 C 52.815,31.526 52.816,31.521 52.818,31.516 C 52.821,31.501 52.822,31.486 52.822,31.472 C 53.48,30.879 54.138,30.284 54.798,29.693 C 55.103,29.642 55.415,29.57 55.696,29.457 L 55.761,29.428 L 55.883,29.405 C 55.972,29.386 56.06,29.365 56.15,29.344 C 56.225,29.327 56.3,29.294 56.373,29.278 C 56.572,29.22 56.687,29.01 56.629,28.811 C 56.571,28.612 56.361,28.498 56.162,28.556 C 56.122,28.564 56.082,28.574 56.043,28.585 C 56.674,28.028 57.309,27.476 57.951,26.936 C 57.981,26.91 58.012,26.883 58.043,26.857 C 58.064,26.855 58.086,26.852 58.106,26.844 C 58.163,26.847 58.222,26.836 58.28,26.824 L 58.393,26.796 L 58.905,26.747 C 59.316,26.689 59.719,26.589 60.117,26.475 C 60.164,26.461 60.211,26.447 60.259,26.414 C 60.262,26.414 60.264,26.413 60.267,26.413 C 59.947,26.729 59.628,27.049 59.314,27.37 Z M 57.114,26.899 L 57.008,26.878 L 57.016,26.88 C 57.143,26.896 57.291,26.904 57.429,26.908 C 56.854,27.433 56.284,27.963 55.716,28.494 C 55.279,28.248 54.817,28.215 54.343,28.245 C 54.434,28.163 54.526,28.079 54.618,27.998 C 55.045,27.613 55.47,27.227 55.898,26.844 C 56.304,26.882 56.709,26.901 57.114,26.899 Z M 46.576,29.429 C 46.383,29.594 46.196,29.764 46.003,29.928 C 45.487,30.367 44.965,30.799 44.446,31.236 C 44.27,31.383 44.094,31.533 43.918,31.683 C 43.023,31.617 42.127,31.568 41.231,31.526 C 41.867,30.918 42.514,30.32 43.166,29.736 C 43.716,29.243 44.27,28.746 44.84,28.275 C 45.371,27.836 45.902,27.404 46.44,26.977 C 46.482,27.795 46.528,28.612 46.576,29.429 Z M 70.153,27.506 C 70.209,27.54 70.279,27.564 70.345,27.571 C 70.434,27.579 70.533,27.564 70.623,27.558 C 70.755,27.549 70.89,27.538 71.024,27.521 C 71.046,27.803 71.064,28.084 71.082,28.366 C 70.898,28.478 70.719,28.597 70.543,28.72 C 70.533,28.713 70.523,28.707 70.513,28.702 C 70.411,28.653 70.287,28.696 70.237,28.798 C 70.183,28.883 70.131,28.97 70.082,29.06 C 69.875,29.219 69.673,29.384 69.474,29.555 C 69.293,29.709 69.118,29.87 68.937,30.026 C 68.158,30.7 67.42,31.425 66.647,32.106 C 66.585,32.045 66.497,31.995 66.412,31.98 C 66.219,31.945 65.988,31.952 65.789,31.934 C 65.724,31.927 65.657,31.923 65.591,31.92 C 65.694,31.608 65.79,31.293 65.887,30.98 C 65.965,30.726 66.024,30.461 66.106,30.212 C 66.402,29.953 66.702,29.697 67.003,29.441 C 67.6,28.932 68.22,28.451 68.821,27.948 C 69.077,27.734 69.345,27.532 69.601,27.318 C 69.693,27.241 69.788,27.163 69.882,27.086 C 69.941,27.244 70.016,27.421 70.153,27.506 Z M 71.822,27.364 L 72.119,27.427 C 72.115,27.642 72.11,27.856 72.103,28.069 C 72.097,28.239 72.091,28.411 72.086,28.583 C 72.046,28.599 72.011,28.624 71.986,28.66 C 71.873,28.808 71.761,28.959 71.65,29.11 C 71.646,28.933 71.641,28.757 71.635,28.58 C 71.712,28.541 71.787,28.504 71.863,28.472 C 71.979,28.412 72.024,28.267 71.964,28.15 C 71.904,28.034 71.758,27.989 71.642,28.049 C 71.633,28.053 71.625,28.057 71.616,28.062 C 71.609,27.848 71.6,27.635 71.59,27.421 C 71.667,27.404 71.744,27.384 71.822,27.364 Z M 71.145,29.795 C 70.842,30.199 70.532,30.602 70.225,31.004 C 69.95,31.363 69.679,31.726 69.401,32.084 C 69.433,31.999 69.465,31.913 69.497,31.828 C 69.714,31.251 69.94,30.682 70.169,30.11 C 70.272,29.853 70.364,29.582 70.466,29.319 C 70.639,29.195 70.815,29.074 70.995,28.958 C 71.032,28.933 71.071,28.908 71.11,28.884 C 71.124,29.185 71.137,29.49 71.145,29.795 Z M 53.582,29.299 L 53.703,29.329 L 53.619,29.33 C 53.485,29.326 53.357,29.308 53.237,29.273 C 53.254,29.258 53.269,29.242 53.286,29.227 C 53.384,29.251 53.484,29.272 53.582,29.299 Z M 54.37,29.749 C 54.32,29.794 54.271,29.84 54.222,29.886 C 53.717,30.352 53.21,30.815 52.701,31.277 C 52.683,31.267 52.663,31.26 52.643,31.256 C 52.524,31.233 52.406,31.312 52.383,31.431 C 52.375,31.472 52.367,31.514 52.361,31.555 C 51.839,31.591 51.318,31.66 50.795,31.774 C 50.801,31.768 50.806,31.761 50.812,31.755 C 51.197,31.332 51.585,30.909 51.98,30.497 C 52.126,30.346 52.289,30.2 52.44,30.054 C 52.619,29.88 52.796,29.704 52.974,29.529 C 53.388,29.749 53.896,29.788 54.37,29.749 Z M 46.805,33.15 C 46.944,35.356 47.079,37.568 47.182,39.775 C 47.221,40.622 47.263,41.47 47.301,42.319 C 47.273,42.965 47.235,43.612 47.191,44.257 C 47.141,44.969 47.089,45.689 47.007,46.397 C 46.9,47.327 46.767,48.237 46.598,49.158 C 46.565,49.341 46.573,49.547 46.559,49.735 C 46.548,49.867 46.534,49.998 46.521,50.129 L 46.501,50.3 L 46.484,50.397 C 46.481,50.417 46.478,50.443 46.476,50.471 L 46.477,50.522 L 46.478,50.558 C 46.487,50.613 46.513,50.658 46.577,50.659 C 46.601,50.659 46.641,50.65 46.658,50.632 C 46.725,50.554 46.735,50.433 46.77,50.337 C 46.82,50.203 46.862,50.066 46.911,49.931 C 46.955,49.809 47.002,49.682 47.045,49.556 C 47.002,50.137 46.982,50.72 46.964,51.299 C 46.924,52.562 46.907,53.824 46.824,55.084 C 46.779,55.752 46.702,56.439 46.589,57.098 C 46.555,57.294 46.512,57.491 46.475,57.687 C 46.39,58.149 46.235,58.591 46.107,59.042 C 46.068,59.172 46.141,59.312 46.271,59.351 C 46.401,59.391 46.541,59.317 46.581,59.187 C 46.637,58.992 46.701,58.8 46.761,58.607 C 46.875,58.235 46.97,57.826 47.045,57.444 C 47.113,57.096 47.196,56.747 47.241,56.396 C 47.253,56.3 47.265,56.205 47.279,56.109 C 47.287,56.679 47.277,57.249 47.223,57.816 C 47.169,58.375 47.059,59.063 46.83,59.578 C 46.799,59.647 46.77,59.731 46.733,59.797 C 46.653,59.942 46.576,60.059 46.484,60.196 C 46.445,60.252 46.385,60.322 46.319,60.39 C 45.914,60.443 45.51,60.496 45.107,60.548 C 44.868,60.578 44.629,60.609 44.39,60.64 C 43.477,60.604 42.561,60.594 41.651,60.594 C 41.608,60.486 41.506,60.406 41.384,60.399 C 40.534,60.286 39.684,60.176 38.827,60.127 C 37.295,60.039 35.745,60.051 34.21,60.058 C 31.556,60.07 28.889,60.206 26.237,60.321 C 24.498,60.397 22.756,60.463 21.018,60.547 C 19.819,60.606 18.614,60.617 17.414,60.644 C 16.259,60.671 15.099,60.667 13.944,60.647 C 13.247,60.636 12.548,60.622 11.851,60.589 C 10.608,60.53 9.353,60.462 8.115,60.324 C 7.708,60.278 7.298,60.239 6.893,60.184 C 6.581,60.143 6.27,60.094 5.958,60.056 C 5.718,60.027 5.478,59.979 5.239,59.941 C 4.989,59.9 4.743,59.856 4.496,59.811 C 4.32,59.764 4.146,59.711 3.974,59.655 C 3.973,59.634 3.972,59.613 3.971,59.591 C 3.946,59.117 3.908,58.671 3.857,58.202 C 3.843,58.07 3.817,57.937 3.787,57.805 L 3.763,57.704 L 3.689,56.861 C 3.587,55.646 3.493,54.431 3.408,53.214 C 3.238,50.802 3.127,48.378 3.027,45.962 C 2.891,42.696 2.795,39.429 2.707,36.161 C 2.739,34.914 2.787,33.666 2.851,32.418 C 2.862,32.2 2.873,31.982 2.885,31.766 C 3.956,31.786 5.027,31.808 6.1,31.82 C 9.936,31.863 13.778,31.831 17.615,31.829 C 18.56,31.828 19.508,31.805 20.453,31.79 C 21.713,31.771 22.973,31.762 24.233,31.757 C 26.224,31.75 28.214,31.782 30.206,31.788 C 32.54,31.795 34.872,31.842 37.205,31.884 C 37.922,31.897 38.643,31.919 39.36,31.947 C 39.784,31.963 40.21,31.975 40.635,31.995 C 40.307,32.318 39.981,32.642 39.657,32.969 L 39.657,33.021 L 39.709,33.021 C 40.048,32.678 40.392,32.338 40.738,32.001 C 40.803,32.004 40.867,32.008 40.932,32.012 C 41.365,32.038 41.8,32.049 42.234,32.074 C 42.619,32.095 43.004,32.118 43.389,32.144 C 42.752,32.709 42.135,33.303 41.592,33.954 L 41.596,34.017 L 41.66,34.012 C 42.227,33.341 42.864,32.725 43.533,32.153 C 43.909,32.179 44.284,32.207 44.659,32.239 C 44.795,32.248 44.914,32.146 44.924,32.011 C 44.934,31.875 44.832,31.755 44.696,31.746 C 44.488,31.727 44.281,31.711 44.074,31.695 C 44.333,31.475 44.591,31.254 44.858,31.043 C 45.261,30.721 45.663,30.391 46.06,30.062 C 46.234,29.917 46.409,29.759 46.587,29.612 C 46.657,30.791 46.731,31.972 46.805,33.15 Z M 69.333,30.761 C 69.047,31.516 68.76,32.271 68.499,33.035 C 68.457,33.158 68.415,33.281 68.372,33.404 C 67.659,34.327 66.951,35.257 66.253,36.188 C 65.028,37.821 63.812,39.458 62.697,41.168 C 62.363,41.681 62.057,42.207 61.734,42.725 C 61.689,42.797 61.711,42.893 61.783,42.938 C 61.855,42.982 61.951,42.96 61.996,42.888 C 62.253,42.472 62.521,42.061 62.796,41.656 C 62.918,41.477 63.033,41.291 63.154,41.11 C 63.54,40.526 63.946,39.955 64.348,39.382 C 64.602,39.02 64.866,38.647 65.135,38.297 C 65.329,38.043 65.517,37.783 65.709,37.529 C 66.198,36.883 66.694,36.234 67.195,35.597 C 67.445,35.277 67.698,34.958 67.95,34.639 C 67.825,35.008 67.7,35.378 67.577,35.749 C 67.173,36.968 66.776,38.2 66.344,39.409 C 66.277,39.594 66.211,39.778 66.146,39.96 C 65.896,40.414 65.649,40.865 65.398,41.315 C 65.287,41.511 65.176,41.709 65.065,41.907 C 64.775,42.237 64.486,42.567 64.202,42.903 C 63.218,44.067 62.209,45.212 61.214,46.367 C 61.084,46.517 60.955,46.668 60.826,46.819 C 60.528,46.869 60.233,46.926 59.93,46.96 C 59.639,46.992 59.348,47.022 59.056,47.051 C 59.487,46.563 59.925,46.086 60.386,45.624 C 60.675,45.334 60.994,45.027 61.309,44.768 C 61.541,44.576 61.773,44.38 62.018,44.205 C 62.176,44.091 62.339,43.986 62.5,43.875 C 62.604,43.805 62.633,43.66 62.562,43.555 C 62.491,43.45 62.346,43.422 62.241,43.493 C 61.926,43.687 61.623,43.917 61.333,44.149 C 61.333,44.146 61.333,44.143 61.333,44.14 C 61.322,43.906 61.121,43.722 60.886,43.733 L 60.028,43.771 L 60.037,43.757 L 60.022,43.778 C 60.176,43.765 60.33,43.75 60.485,43.734 C 60.822,43.697 61.173,43.618 61.505,43.552 C 61.631,43.525 61.712,43.399 61.685,43.273 C 61.658,43.146 61.532,43.065 61.406,43.092 C 61.185,43.144 60.962,43.206 60.741,43.251 C 60.616,43.277 60.493,43.299 60.37,43.319 C 60.626,42.98 60.869,42.627 61.138,42.304 C 61.286,42.125 61.426,41.924 61.566,41.738 C 61.807,41.415 62.051,41.094 62.289,40.768 C 62.8,40.066 63.311,39.368 63.813,38.658 C 64.097,38.256 64.363,37.841 64.638,37.432 C 65.259,36.508 65.846,35.516 66.315,34.507 C 66.523,34.061 66.838,33.284 66.817,32.777 C 66.812,32.667 66.813,32.55 66.797,32.439 C 66.987,32.292 67.176,32.145 67.354,31.988 C 67.777,31.61 68.197,31.225 68.62,30.845 C 68.962,30.537 69.303,30.236 69.655,29.948 C 69.54,30.218 69.435,30.491 69.333,30.761 Z M 65.251,30.992 C 65.159,31.29 65.065,31.588 64.969,31.886 C 64.755,31.875 64.539,31.865 64.325,31.856 C 64.392,31.795 64.459,31.734 64.526,31.674 C 64.772,31.449 65.01,31.214 65.252,30.984 C 65.252,30.986 65.251,30.989 65.251,30.992 Z M 70.454,31.713 C 70.41,31.709 70.365,31.727 70.338,31.766 C 70.026,32.207 69.714,32.64 69.409,33.086 C 69.102,33.534 68.822,34.003 68.548,34.473 C 68.561,34.44 68.572,34.406 68.585,34.373 C 68.701,34.047 68.816,33.721 68.931,33.394 C 69.095,33.186 69.258,32.977 69.42,32.769 C 69.86,32.199 70.304,31.632 70.746,31.061 C 70.655,31.282 70.556,31.497 70.454,31.713 Z M 54.908,31.695 C 54.558,31.709 54.209,31.725 53.86,31.747 C 53.533,31.766 53.196,31.798 52.87,31.835 C 52.828,31.839 52.787,31.844 52.745,31.848 C 52.763,31.762 52.782,31.676 52.801,31.59 C 53.501,31.575 54.204,31.617 54.908,31.695 Z M 58.261,32.578 C 58.525,32.58 58.79,32.583 59.056,32.588 C 59.062,32.603 59.073,32.615 59.087,32.627 C 59.134,32.665 59.205,32.658 59.243,32.61 C 59.248,32.604 59.253,32.597 59.257,32.591 C 59.962,32.603 60.671,32.622 61.374,32.653 C 61.353,32.676 61.333,32.699 61.312,32.722 C 61.279,32.757 61.282,32.814 61.317,32.847 C 61.352,32.88 61.409,32.877 61.442,32.842 C 61.496,32.782 61.55,32.723 61.605,32.665 C 61.704,32.67 61.803,32.675 61.902,32.68 C 62.819,32.73 63.739,32.756 64.656,32.82 C 64.58,33.039 64.502,33.257 64.424,33.474 C 64.055,34.483 63.65,35.477 63.198,36.452 C 63.046,36.78 62.894,37.103 62.731,37.426 C 62.65,37.586 62.576,37.75 62.49,37.909 C 62.338,38.185 62.197,38.47 62.042,38.743 C 61.888,39.017 61.725,39.287 61.57,39.56 C 61.319,39.998 61.028,40.411 60.752,40.832 C 60.538,41.16 60.289,41.489 60.046,41.798 C 59.773,42.145 59.485,42.502 59.177,42.818 C 59.032,42.967 58.889,43.12 58.738,43.264 L 58.731,43.265 L 56.181,43.335 C 56.051,43.337 55.921,43.34 55.791,43.342 C 55.253,43.277 54.718,43.196 54.179,43.114 C 53.325,42.983 52.473,42.836 51.621,42.696 C 51.634,41.761 51.642,40.831 51.701,39.899 C 51.748,39.166 51.787,38.426 51.862,37.696 C 51.955,36.784 52.05,35.869 52.185,34.962 C 52.293,34.23 52.415,33.508 52.554,32.787 C 52.975,32.728 53.406,32.692 53.813,32.666 C 53.795,32.68 53.779,32.695 53.762,32.709 C 53.707,32.757 53.7,32.843 53.748,32.899 C 53.795,32.954 53.882,32.961 53.937,32.913 C 54.042,32.822 54.147,32.731 54.252,32.64 C 54.434,32.631 54.616,32.623 54.799,32.614 C 55.395,32.582 55.998,32.571 56.602,32.569 C 56.494,32.706 56.387,32.843 56.281,32.983 C 56.246,33.028 56.255,33.095 56.3,33.13 C 56.344,33.165 56.411,33.156 56.446,33.111 C 56.583,32.928 56.724,32.747 56.866,32.568 C 57.333,32.569 57.797,32.574 58.261,32.578 Z M 69.337,33.966 C 68.901,34.813 68.457,35.658 68.005,36.496 C 67.838,36.806 67.674,37.117 67.51,37.43 C 67.662,37.001 67.811,36.571 67.962,36.142 C 68.361,35.292 68.819,34.47 69.329,33.682 C 69.537,33.36 69.753,33.028 69.976,32.702 C 69.769,33.126 69.552,33.547 69.337,33.966 Z M 65.773,32.888 L 65.819,32.891 L 65.766,33.142 C 65.706,33.363 65.622,33.579 65.554,33.746 C 65.266,34.452 64.893,35.1 64.505,35.755 C 64.144,36.363 63.75,36.947 63.357,37.536 C 63.07,37.964 62.775,38.389 62.445,38.793 C 62.798,38.198 63.131,37.579 63.443,36.963 C 64.121,35.624 64.718,34.26 65.253,32.86 C 65.427,32.871 65.601,32.88 65.773,32.888 Z M 51.52,41.122 C 51.514,41.639 51.512,42.158 51.516,42.679 C 51.499,42.676 51.482,42.673 51.466,42.67 C 51.416,42 51.348,41.335 51.313,40.664 C 51.268,39.818 51.236,38.974 51.209,38.127 C 51.174,37.014 51.133,35.91 51.125,34.796 C 51.122,34.421 51.131,34.035 51.153,33.661 L 51.188,33.129 L 51.35,33.06 C 51.49,33.008 51.637,32.968 51.7,32.952 C 51.845,32.914 51.996,32.881 52.149,32.853 C 51.74,35.589 51.546,38.356 51.52,41.122 Z M 45.574,33.947 C 45.108,34.269 44.692,34.69 44.302,35.099 C 43.98,35.437 43.663,35.779 43.333,36.11 C 43.125,36.318 42.904,36.532 42.669,36.709 C 42.529,36.814 42.392,36.906 42.245,37 C 42.208,37.023 42.197,37.073 42.221,37.11 C 42.244,37.147 42.293,37.157 42.33,37.134 C 42.408,37.077 42.496,37.03 42.576,36.976 C 42.65,36.925 42.729,36.862 42.801,36.807 C 43.202,36.497 43.61,36.093 43.953,35.725 C 44.135,35.53 44.331,35.338 44.521,35.151 C 45.024,34.656 45.597,34.122 46.254,33.842 C 46.316,33.81 46.341,33.733 46.309,33.67 C 46.277,33.608 46.2,33.583 46.137,33.615 C 45.942,33.717 45.756,33.822 45.574,33.947 Z M 2.44,35.457 C 2.438,35.544 2.437,35.631 2.436,35.72 C 2.431,36.07 2.427,36.421 2.425,36.772 C 2.408,36.479 2.391,36.186 2.375,35.894 C 2.366,35.254 2.359,34.623 2.354,33.994 C 2.381,34.532 2.409,35.027 2.44,35.457 Z M 50.251,36.149 C 50.275,36.676 50.276,37.215 50.322,37.741 C 50.346,38.017 50.372,38.294 50.405,38.569 C 50.448,38.507 50.43,38.429 50.373,38.389 C 50.309,38.345 50.22,38.361 50.176,38.424 C 50.102,38.515 50.013,38.657 49.946,38.758 C 49.827,38.938 49.664,39.127 49.524,39.295 C 49.195,39.689 48.869,40.052 48.579,40.446 C 48.575,40.334 48.57,40.222 48.565,40.11 C 48.533,39.472 48.511,38.832 48.487,38.192 C 48.977,37.486 49.549,36.856 50.191,36.251 C 50.247,36.195 50.247,36.102 50.192,36.046 C 50.137,35.989 50.044,35.989 49.987,36.045 C 49.422,36.602 48.929,37.215 48.476,37.864 C 48.472,37.768 48.468,37.673 48.465,37.578 C 48.444,37.032 48.423,36.488 48.408,35.945 C 48.544,35.799 48.684,35.656 48.823,35.512 C 49.294,35.025 49.795,34.566 50.234,34.049 C 50.24,34.04 50.246,34.033 50.251,34.025 C 50.21,34.726 50.221,35.456 50.251,36.149 Z M 48.057,38.494 C 48.039,38.525 48.021,38.555 48.003,38.585 C 48.002,38.415 48.001,38.245 48,38.076 C 47.993,37.532 47.984,36.988 47.97,36.444 C 48.028,36.371 48.089,36.299 48.151,36.229 C 48.101,36.981 48.069,37.739 48.057,38.494 Z M 50.408,38.585 C 50.405,38.588 50.403,38.591 50.401,38.594 C 50.4,38.585 50.4,38.577 50.405,38.569 C 50.413,38.574 50.41,38.579 50.408,38.585 Z M 50.558,40.107 C 50.531,40.119 50.507,40.138 50.488,40.164 C 50.404,40.278 50.329,40.401 50.244,40.515 C 50.122,40.679 50.001,40.839 49.876,41 C 49.675,41.258 49.451,41.504 49.251,41.764 C 49.034,42.046 48.822,42.338 48.634,42.643 C 48.623,42.286 48.614,41.928 48.606,41.571 C 48.599,41.314 48.595,41.058 48.588,40.801 C 48.722,40.597 48.868,40.402 49.039,40.196 C 49.481,39.658 50.008,39.168 50.401,38.594 C 50.45,39.099 50.503,39.602 50.558,40.107 Z M 48.062,39.969 C 48.071,40.38 48.086,40.79 48.104,41.2 C 48.086,41.236 48.067,41.273 48.05,41.31 C 48.023,41.361 48.044,41.426 48.095,41.453 C 48.102,41.456 48.109,41.458 48.116,41.46 C 48.167,42.505 48.24,43.548 48.308,44.593 C 48.311,44.644 48.314,44.696 48.318,44.747 C 48.309,44.758 48.3,44.769 48.291,44.78 C 48.204,44.887 48.08,45.022 48.007,45.134 C 47.972,45.177 47.979,45.244 48.023,45.279 C 48.066,45.314 48.133,45.307 48.168,45.264 C 48.208,45.202 48.268,45.142 48.314,45.084 C 48.321,45.073 48.329,45.064 48.337,45.054 C 48.37,45.584 48.403,46.115 48.435,46.645 C 48.221,46.967 48.031,47.301 47.874,47.648 C 47.862,47.669 47.858,47.691 47.859,47.715 C 47.854,47.714 47.848,47.714 47.843,47.714 C 47.805,47.71 47.769,47.727 47.747,47.755 C 47.741,46.875 47.735,45.995 47.728,45.116 C 47.845,43.97 47.918,42.811 47.95,41.675 C 47.975,40.773 47.997,39.871 48.002,38.969 C 48.019,38.938 48.036,38.908 48.054,38.878 C 48.052,39.243 48.054,39.607 48.062,39.969 Z M 50.78,42.067 L 50.778,42.057 C 50.765,42.061 50.752,42.068 50.74,42.078 C 50.595,42.205 50.441,42.319 50.294,42.451 C 50.115,42.613 49.946,42.795 49.784,42.973 C 49.438,43.352 49.106,43.748 48.789,44.153 C 48.755,44.196 48.721,44.239 48.687,44.283 C 48.684,44.173 48.68,44.066 48.677,43.958 C 48.665,43.651 48.655,43.344 48.646,43.038 C 48.811,42.746 49,42.469 49.203,42.201 C 49.494,41.815 49.858,41.452 50.18,41.089 C 50.315,40.936 50.44,40.774 50.573,40.623 C 50.585,40.607 50.598,40.593 50.609,40.576 C 50.665,41.073 50.722,41.569 50.78,42.067 Z M 50.815,42.345 L 50.816,42.352 L 50.905,43.041 L 50.774,43.02 C 50.689,43.005 50.589,42.981 50.49,42.964 L 50.398,42.954 L 50.21,42.939 C 50.181,42.94 50.155,42.945 50.131,42.951 C 50.269,42.812 50.411,42.678 50.563,42.551 C 50.639,42.486 50.728,42.409 50.815,42.345 Z M 51.517,42.854 C 51.517,42.943 51.518,43.032 51.519,43.121 L 51.513,43.121 L 51.484,42.848 C 51.495,42.85 51.505,42.852 51.517,42.854 Z M 54.251,43.34 C 53.818,43.33 53.388,43.313 52.959,43.285 L 51.626,43.134 L 51.617,43.132 C 51.617,43.045 51.618,42.957 51.619,42.871 C 52.495,43.013 53.371,43.182 54.251,43.34 Z M 59.292,43.07 L 59.157,43.253 L 59.132,43.253 C 59.012,43.406 59.069,43.351 59.125,43.295 L 59.292,43.07 Z M 49.91,43.642 C 49.956,43.697 49.964,43.718 50.032,43.751 C 50.069,43.769 50.101,43.796 50.141,43.806 C 50.321,43.852 50.511,43.922 50.695,43.974 C 50.765,43.993 50.834,43.989 50.9,44.009 L 50.937,44.018 C 50.146,44.648 49.377,45.378 48.754,46.195 C 48.736,45.665 48.718,45.134 48.699,44.604 C 48.902,44.348 49.106,44.088 49.32,43.846 C 49.49,43.653 49.659,43.457 49.833,43.267 C 49.799,43.393 49.817,43.533 49.91,43.642 Z M 63.596,44.526 C 63.459,44.761 63.297,45 63.168,45.237 C 63.029,45.494 62.838,45.732 62.685,45.979 L 62.422,46.321 L 62.295,46.421 C 62.246,46.44 62.192,46.469 62.141,46.492 C 61.949,46.574 61.736,46.625 61.534,46.678 C 61.464,46.695 61.389,46.715 61.312,46.732 C 62.21,45.738 63.121,44.758 64.032,43.773 C 63.889,44.025 63.743,44.275 63.596,44.526 Z M 51.657,44.176 L 52.861,44.384 C 53.325,44.451 53.814,44.503 54.282,44.538 C 54.441,44.55 54.6,44.563 54.759,44.575 C 54.185,45.067 53.612,45.568 53.083,46.104 C 52.704,46.488 52.319,46.88 51.995,47.311 C 51.949,47.371 51.904,47.431 51.862,47.491 C 51.457,47.495 51.052,47.494 50.65,47.486 C 50.57,47.484 50.49,47.482 50.41,47.48 C 50.543,47.329 50.687,47.185 50.819,47.036 C 51.236,46.564 51.71,46.077 52.204,45.688 C 52.392,45.54 52.579,45.368 52.777,45.235 C 52.857,45.171 52.868,45.053 52.804,44.973 C 52.74,44.894 52.622,44.882 52.542,44.946 C 52.255,45.183 51.972,45.437 51.697,45.7 C 51.689,45.575 51.681,45.449 51.674,45.323 C 51.739,45.261 51.773,45.168 51.76,45.074 L 51.663,44.389 L 51.628,44.141 C 51.627,44.094 51.625,44.046 51.657,44.176 Z M 51.088,44.404 L 51.089,44.405 L 51.201,45.162 C 51.224,45.315 51.37,45.421 51.524,45.398 C 51.548,45.394 51.571,45.386 51.594,45.376 C 51.601,45.522 51.611,45.667 51.621,45.813 C 51.621,45.821 51.624,45.829 51.637,45.828 C 50.996,46.407 50.816,46.601 50.644,46.796 C 50.452,47.011 50.276,47.241 50.104,47.472 C 49.925,47.467 49.747,47.461 49.569,47.455 C 49.414,47.45 49.227,47.449 49.075,47.429 C 48.983,47.418 48.888,47.414 48.795,47.408 C 48.786,47.162 48.779,46.918 48.771,46.673 C 49.204,46.065 49.771,45.466 50.326,45.012 C 50.454,44.907 50.579,44.791 50.711,44.692 C 50.838,44.597 50.962,44.498 51.088,44.404 Z M 58.485,47.107 C 58.338,47.122 58.191,47.136 58.044,47.152 C 57.234,47.235 56.422,47.301 55.61,47.352 C 56.119,46.783 56.649,46.245 57.206,45.711 C 57.5,45.429 57.816,45.152 58.126,44.886 C 58.212,44.812 58.303,44.742 58.388,44.668 L 58.389,44.666 C 58.677,44.664 58.966,44.66 59.256,44.652 C 59.774,44.637 60.294,44.603 60.812,44.589 C 59.959,45.35 59.217,46.229 58.485,47.107 Z M 55.908,44.638 C 56.535,44.653 57.157,44.665 57.78,44.667 C 57.596,44.838 57.415,45.021 57.24,45.184 C 56.505,45.866 55.838,46.613 55.19,47.377 C 54.506,47.416 53.821,47.444 53.138,47.464 C 52.831,47.473 52.524,47.481 52.216,47.486 C 52.487,47.145 52.791,46.823 53.088,46.544 C 53.817,45.857 54.586,45.221 55.384,44.617 C 55.559,44.627 55.734,44.634 55.908,44.638 Z M 62.679,47.185 L 62.451,47.377 L 62.031,47.65 C 61.53,47.949 60.947,48.221 60.388,48.387 C 60.15,48.457 59.921,48.515 59.686,48.574 C 59.934,48.286 60.183,48.001 60.433,47.717 C 61.107,47.628 61.78,47.52 62.415,47.294 C 62.514,47.258 62.605,47.214 62.698,47.166 C 62.691,47.172 62.685,47.178 62.679,47.185 Z M 47.411,47.89 C 47.393,47.904 47.376,47.917 47.36,47.933 C 47.376,47.823 47.393,47.715 47.408,47.609 C 47.409,47.701 47.41,47.795 47.411,47.89 Z M 48.242,47.75 C 48.207,47.746 48.172,47.742 48.137,47.738 C 48.142,47.726 48.148,47.715 48.154,47.703 C 48.178,47.725 48.208,47.742 48.242,47.75 Z M 59.254,48.667 C 59.119,48.689 58.983,48.707 58.857,48.724 C 58.54,48.766 58.223,48.801 57.903,48.812 C 57.775,48.817 57.648,48.823 57.521,48.829 C 57.648,48.683 57.776,48.538 57.902,48.391 C 58.033,48.236 58.165,48.082 58.297,47.927 C 58.824,47.9 59.354,47.853 59.87,47.788 C 59.917,47.782 59.966,47.776 60.015,47.77 C 59.76,48.069 59.507,48.368 59.254,48.667 Z M 49.21,47.843 C 49.406,47.855 49.604,47.864 49.803,47.874 C 49.784,47.899 49.766,47.923 49.747,47.947 C 49.434,47.9 49.121,47.854 48.809,47.816 C 48.808,47.814 48.808,47.813 48.808,47.812 C 48.941,47.817 49.076,47.834 49.21,47.843 Z M 51.558,47.945 C 51.516,48.011 51.474,48.078 51.433,48.147 C 51.42,48.167 51.413,48.189 51.413,48.212 C 51.345,48.202 51.278,48.191 51.211,48.181 C 50.806,48.116 50.398,48.049 49.989,47.984 C 50.015,47.952 50.043,47.92 50.07,47.888 C 50.564,47.915 51.061,47.931 51.558,47.945 Z M 53.755,47.983 C 54.061,47.987 54.368,47.99 54.675,47.991 C 54.533,48.16 54.391,48.331 54.251,48.501 C 54.222,48.535 54.213,48.578 54.219,48.618 C 53.375,48.5 52.533,48.383 51.691,48.255 C 51.748,48.153 51.81,48.052 51.876,47.951 C 52.503,47.966 53.13,47.974 53.755,47.983 Z M 57.126,48.71 C 57.087,48.752 57.047,48.796 57.008,48.84 C 56.184,48.839 55.315,48.765 54.503,48.657 C 54.677,48.43 54.868,48.21 55.055,47.99 C 55.921,47.988 56.787,47.973 57.653,47.952 C 57.696,47.95 57.738,47.95 57.781,47.949 C 57.565,48.205 57.347,48.46 57.126,48.71 Z M 48.319,47.977 C 48.316,48.085 48.315,48.193 48.316,48.302 C 48.319,48.849 48.366,49.414 48.394,49.963 C 48.453,51.123 48.515,52.281 48.562,53.442 C 48.609,54.571 48.615,55.702 48.573,56.83 C 48.555,57.3 48.532,57.793 48.486,58.268 L 48.173,58.114 C 48.085,58.069 47.997,58.025 47.909,57.982 C 47.996,57.413 48.039,56.84 48.079,56.251 C 48.117,55.68 48.122,55.102 48.135,54.529 C 48.148,54.018 48.15,53.507 48.167,52.997 C 48.18,52.614 48.182,52.222 48.212,51.84 C 48.227,51.638 48.244,51.402 48.299,51.208 C 48.352,50.923 48.165,50.647 47.881,50.593 C 47.913,50.3 47.954,50.007 47.997,49.715 C 48.063,49.273 48.154,48.831 48.225,48.389 C 48.252,48.224 48.195,48.064 48.089,47.951 C 48.165,47.959 48.242,47.968 48.319,47.977 Z M 3.597,56.168 L 3.718,57.507 L 3.696,57.413 L 3.673,57.419 C 3.687,57.484 3.705,57.55 3.723,57.616 L 3.731,57.655 L 3.863,59.041 C 3.883,59.24 3.902,59.439 3.922,59.639 C 3.911,59.635 3.901,59.632 3.891,59.629 C 3.801,59.599 3.7,59.567 3.596,59.53 C 3.504,59.172 3.415,58.813 3.328,58.45 C 3.281,58.252 3.238,58.053 3.197,57.854 C 3.187,56.836 3.169,55.821 3.146,54.806 C 3.147,54.804 3.148,54.803 3.149,54.802 C 3.202,55.483 3.258,56.165 3.317,56.846 C 3.318,56.868 3.339,56.886 3.361,56.885 C 3.384,56.884 3.401,56.863 3.4,56.84 C 3.329,56.005 3.264,55.172 3.203,54.338 C 3.213,53.32 3.227,52.308 3.212,51.296 C 3.324,52.92 3.45,54.547 3.597,56.168 Z M 3.779,57.876 L 3.839,58.233 C 3.861,58.374 3.88,58.516 3.891,58.657 C 3.917,58.964 3.932,59.273 3.949,59.58 L 3.952,59.648 C 3.949,59.647 3.947,59.646 3.944,59.646 L 3.85,58.682 L 3.779,57.876 Z M 48.384,58.368 C 48.403,58.377 48.435,58.397 48.47,58.417 C 48.466,58.454 48.461,58.492 48.457,58.531 C 48.429,58.768 48.413,59.009 48.381,59.245 C 48.346,59.499 48.31,59.753 48.274,60.007 C 48.268,60.043 48.263,60.078 48.257,60.115 C 48.094,60.14 47.931,60.164 47.768,60.188 C 47.765,59.702 47.765,59.215 47.765,58.729 C 47.813,58.526 47.853,58.324 47.887,58.122 C 48.052,58.205 48.217,58.289 48.384,58.368 Z M 2.737,58.779 C 2.762,58.899 2.786,59.019 2.81,59.141 C 2.631,59.003 2.496,58.833 2.449,58.618 C 2.519,58.707 2.621,58.766 2.737,58.779 Z M 47.443,60.237 C 47.352,60.249 47.261,60.262 47.17,60.275 C 47.182,60.255 47.193,60.236 47.203,60.219 C 47.301,60.053 47.387,59.881 47.46,59.704 C 47.455,59.881 47.449,60.059 47.443,60.237 Z M 4.005,60.442 C 4.009,60.462 4.015,60.481 4.027,60.496 C 4.027,60.484 4.026,60.468 4.025,60.448 C 4.072,60.462 4.12,60.474 4.167,60.488 C 4.623,60.608 5.131,60.73 5.599,60.784 C 5.798,60.807 6.005,60.843 6.204,60.874 C 6.388,60.903 6.58,60.919 6.766,60.935 C 7.066,60.96 7.363,60.985 7.664,60.988 C 7.993,60.991 8.318,60.995 8.648,60.993 C 8.808,60.991 8.97,60.986 9.132,60.981 C 9.661,61.031 10.189,61.072 10.716,61.108 C 11.457,61.158 12.197,61.192 12.938,61.228 C 14.061,61.282 15.193,61.298 16.316,61.307 C 18.83,61.328 21.336,61.271 23.848,61.202 C 25.274,61.162 26.7,61.117 28.153,61.072 C 25.794,61.199 23.462,61.326 21.129,61.411 C 17.827,61.533 14.531,61.61 11.228,61.477 C 10.261,61.438 9.284,61.385 8.319,61.309 C 7.741,61.264 7.166,61.207 6.588,61.148 C 5.676,60.995 4.766,60.807 3.873,60.575 C 3.856,60.513 3.839,60.45 3.823,60.388 C 3.883,60.407 3.944,60.425 4.005,60.442 Z M 48.108,60.961 C 47.919,60.935 47.727,60.91 47.537,60.887 C 47.541,60.797 47.545,60.706 47.549,60.616 C 47.703,60.581 47.857,60.546 48.01,60.511 C 48.072,60.496 48.134,60.481 48.197,60.466 C 48.166,60.63 48.136,60.795 48.108,60.961 Z M 47.417,60.873 C 47.196,60.848 46.976,60.824 46.755,60.803 C 46.764,60.793 46.774,60.784 46.783,60.774 C 46.998,60.732 47.214,60.687 47.427,60.641 C 47.424,60.718 47.421,60.796 47.417,60.873 Z M 37.217,61.439 C 36.971,61.446 36.724,61.452 36.479,61.457 C 36.041,61.466 35.603,61.482 35.166,61.484 C 34.535,61.487 33.904,61.501 33.273,61.505 C 31.41,61.52 29.546,61.508 27.684,61.498 C 29.534,61.404 31.385,61.309 33.237,61.237 C 35.636,61.144 38.037,61.078 40.438,61.062 C 40.653,61.06 40.867,61.059 41.085,61.059 C 39.797,61.205 38.504,61.326 37.217,61.439 Z M 12.95,61.815 C 12.825,61.825 12.692,61.835 12.556,61.847 C 12.311,61.829 12.063,61.809 11.815,61.789 C 11.715,61.78 11.616,61.771 11.512,61.763 C 11.995,61.783 12.475,61.8 12.95,61.815 Z M 25.771,62.114 C 23.519,62.174 21.268,62.187 19.019,62.131 C 19.732,62.069 20.446,62.065 21.159,62.066 C 22.697,62.068 24.233,62.088 25.771,62.114 Z" stroke="none" fill="#ffffff" stroke-width="0.5" fill-rule="evenodd" marker-start="none" marker-end="none" stroke-miterlimit="79.8403193612775"/></g></g></g></svg>