<svg xmlns="http://www.w3.org/2000/svg" xmlns:xlink="http://www.w3.org/1999/xlink" version="1.1" x="0px" y="0px" viewBox="0 0 1000 1250" enable-background="new 0 0 1000 1000" xml:space="preserve"><g><path fill="#ffffff" fill-rule="evenodd" clip-rule="evenodd" d="M918.554,545.622c-11.68-18.938-19.936-40.002-35.344-56.678   c-3.425-3.706-6.025-8.551-7.812-13.317c-3.792-10.117-9.028-18.415-22.051-20.474c18.314-23.46,55.456-66.109,54.64-69.998   c-0.816-3.888-23.747-4.344-33.645-6.156c-1.418-24.961,12.259-47.859,1.974-70.723c4.899-5.081,8.803-9.197,12.786-13.24   c4.814-4.882,4.6-9.338,0.732-15.185c-6.946-10.502-16.474-15.017-28.581-15.779c-29.024-1.827-58.016-4.235-87.057-5.649   c-15.556-0.759-31.194-0.117-46.786,0.189c-43.111,0.849-86.262,3.527-129.315,2.402c-62.433-1.638-124.831-5.396-187.167-9.417   c-29.572-1.91-59.098-5.713-88.391-10.274c-13.335-2.077-24.116,0.071-35.019,7.474c-24.547,16.667-50.257,31.321-77.585,43.084   c-7.582,3.263-14.678,7.689-21.879,11.79c-30.307,17.249-58.187,37.928-85.984,58.926c-12.679,9.576-19.781,18.118-18.965,35.172   c1.419,29.537-0.889,59.234-0.415,88.846c0.145,9.02,3.333,18.372,6.824,26.875c5.252,12.794,17.366,15.026,30.747,15.37   c-12.374,17.706-22.821,33.735-34.424,48.875c-7.608,9.924-16.168,18.73-9.321,32.527c0.605,1.223-0.212,3.087-0.126,4.64   c1.077,19.687,0.847,39.577,3.798,58.981c1.9,12.498,1.766,24.627,2.038,37.036c0.255,11.614,3.11,23.269,5.702,34.707   c2.086,9.213,8.876,14.021,18.287,13.794c16.576-0.399,33.146-1.176,49.705-2.076c51.292-2.785,102.579-5.772,153.874-8.547   c33.71-1.823,67.444-3.229,101.148-5.155c32.186-1.838,64.327-4.382,96.515-6.126c48.752-2.644,97.521-5.07,146.298-7.198   c47.191-2.061,94.397-3.758,141.607-5.327c12.452-0.414,24.976,0.913,37.404,0.255c45.853-2.433,78.092-0.902,82.983-50.263   c1.274-12.857,1.649-25.804,2.563-38.704c1.129-15.958,2.429-31.905,3.629-47.862c0.349-4.651-0.885-10.157,1.188-13.808   C929.544,563.308,923.888,554.274,918.554,545.622z M890.805,391.063c-7.949,10.069-15.237,18.658-21.823,27.754   c-31.067,42.908-66.021,82.497-102.548,120.756c-4.653,4.872-9.306,9.806-14.438,14.142c-1.918,1.623-6.351,3.031-7.602,2.021   c-1.824-1.471-3.26-5.929-2.312-7.869c2.92-5.981,6.031-12.533,10.887-16.792c21.978-19.287,38.209-43.538,57.689-64.933   c17.781-19.534,36.64-38.129,55.64-56.503c5.684-5.498,9.499-10.426,5.021-20.241C879.432,390.09,884.286,390.506,890.805,391.063z    M738.788,499.945c-0.849-18.347,0.288-36.775-0.185-55.15c-0.17-6.514,1.722-10.16,6.969-14.097   c25.777-19.328,51.157-39.184,76.53-59.044c3.423-2.678,6.012-6.42,7.889-10.898c-31.241,19.844-59.556,43.36-90.23,70.015   c0.529-6.189-0.242-9.714,1.125-11.048c7.352-7.188,15.036-14.071,22.982-20.604c15.105-12.413,30.471-24.511,45.716-36.752   c3.229-2.592,6.392-5.268,9.634-7.843c10.51-8.349,21.044-16.662,31.559-25.005c4.731-3.756,9.434-7.55,16.204-12.97   c1.48,11.328,3.879,19.64-3.385,27.004l-0.391-0.525c0.989,4.388,2.662,8.745,2.854,13.169   c1.115,25.902-6.219,47.751-25.581,66.847c-29.463,29.059-52.983,63.771-84.375,91.211c-4.558,3.986-8.026,9.216-13.104,15.164   C736.961,519.092,739.209,509.099,738.788,499.945z M101.659,495.878c-1.571-11.194-1.357-22.638-1.986-33.967   c-0.748-13.381-1.729-26.749-2.261-40.136c-0.326-8.15,2.399-17.294-0.433-24.299c-7.131-17.64,2.429-25.212,15.166-33.358   c10.023-6.408,17.956-16.187,28.159-22.186c22.811-13.407,46.272-25.76,69.813-37.864c29.519-15.175,60.647-27.266,87.906-46.755   c2.48-1.774,7.773-2.911,9.771-1.51c9.897,6.952,21.12,4.254,31.741,5.604c20.098,2.56,40.146,6.051,60.328,7.263   c38.424,2.308,76.928,3.229,115.396,4.832c35.379,1.476,70.754,3.174,106.137,4.629c33.235,1.367,66.319,1.208,99.563-2.596   c23.082-2.642,46.698-0.586,70.073-0.656c8.822-0.027,17.729-0.945,26.448-0.039c19.027,1.977,37.973,4.75,56.904,7.526   c2.202,0.323,4.103,2.719,6.266,4.238c-0.989,1.886-1.375,3.614-2.45,4.528c-28.524,24.212-53.422,52.465-84.71,73.684   c-20.165,13.674-38.535,29.973-57.944,44.791c-5.939,4.536-8.475,10.006-8.55,17.283c-0.253,25.435-0.74,50.867-1.068,76.304   c-0.069,5.19,0.232,10.384,0.245,15.576c0.032,12.865-0.003,25.732-0.013,40.421c-1.166,0.264-4.423,1.438-7.742,1.65   c-4.662,0.297-9.371-0.076-14.059-0.239c-35.295-1.217-70.628-1.791-105.875-3.847c-45.659-2.661-91.246-6.522-136.868-9.829   c-37.75-2.737-75.541-4.979-113.244-8.262c-30.53-2.659-61.024-6.016-91.406-10.027c-31.457-4.153-62.7-9.949-94.162-14.059   c-13.851-1.81-28.025-1.029-42.034-1.782C105.624,511.981,103.749,510.744,101.659,495.878z M900.518,642.086   c-1.919,14.793-0.152,29.888-5.762,44.437c-4.135,10.729-15.437,21.893-26.863,22.182c-31.651,0.805-63.319,1.001-94.964,1.947   c-36.354,1.09-72.707,2.454-109.037,4.195c-43.561,2.09-87.095,4.714-130.642,7.087c-37.857,2.063-75.709,4.155-113.567,6.134   c-51.354,2.684-102.709,5.271-154.065,7.907c-44.549,2.29-89.094,4.629-133.647,6.839c-5.709,0.281-11.462,0.113-17.175-0.214   c-12.072-0.694-19.553-6.69-18.17-18.472c2.892-24.682-2.145-48.697-3.517-73.001c-0.727-12.918-0.46-26.24-3.695-38.582   c-3.896-14.854,2.626-25.372,10.653-35.355c11.392-14.161,24.115-27.242,36.063-40.967c4.351-4.999,9.73-5.643,15.601-4.869   c21.129,2.787,42.23,5.779,63.365,8.532c32.006,4.169,63.949,9.074,96.067,12.095c49.725,4.681,99.575,8.021,149.37,11.951   c43.555,3.439,87.089,7.124,130.666,10.235c13.86,0.988,27.829,0.481,41.748,0.658c0.022,0.809,0.05,1.62,0.074,2.43   c-32.034,1.947-64.08,3.731-96.101,5.879c-74.126,4.975-148.186,11.388-222.385,14.697c-40.419,1.806-81.071-1.478-121.611-2.579   c-21.327-0.582-42.644-1.556-63.97-2.015c-4.923-0.107-9.875,1.165-15.605,1.907c2.32,11.614,9.864,12.62,17.813,12.948   c27.018,1.113,54.029,2.431,81.056,3.229c30.649,0.904,61.375,2.837,91.957,1.606c44.592-1.798,89.08-6.079,133.621-9.194   c28.456-1.99,56.941-3.561,85.383-5.732c39.879-3.044,79.74-6.348,119.578-9.87c6.061-0.534,12.047-3.541,17.777-4.543   c47.869-8.379,53.48-3.265,92.705-5.568c0.025-0.002,0.045-0.023,0.067-0.035c12.946-6.612,96.618-117.688,96.979-117.498   c1.883,0.992,3.247,1.258,3.432,1.876c8.324,28.033,30.467,47.931,43.226,73.414c5.899,11.784,9.64,22.819,9.973,36.587   C907.487,596.059,903.518,618.941,900.518,642.086z"/><path fill="#ffffff" fill-rule="evenodd" clip-rule="evenodd" d="M689.39,429.63c-3.34,12.218-9.579,14.105-17.674,13.786   c-18.187-0.716-36.394-0.91-54.58-1.612c-44.644-1.729-89.32-2.968-133.907-5.637c-43.146-2.583-86.213-6.527-129.285-10.218   c-26.8-2.297-53.654-4.455-80.291-8.076c-37.589-5.106-74.982-11.619-112.495-17.284c-9.776-1.479-19.679-2.161-29.543-2.994   c-8.849-0.749-14.155-4.988-16.162-15.497c14.87,1.271,28.558,1.859,42.073,3.716c28.33,3.896,56.572,8.427,84.84,12.764   c11.805,1.81,23.561,3.942,35.378,5.662c72.169,10.499,145.129,11.785,217.638,18.394c29.968,2.73,60.146,3.396,90.249,4.291   c28.063,0.834,56.156,0.65,84.236,1.097C675.876,428.116,681.876,428.987,689.39,429.63z"/><path fill="#ffffff" fill-rule="evenodd" clip-rule="evenodd" d="M617.651,472.314c16.676-0.757,20.096,1.952,19.84,15.083   c-0.392,19.954-1.955,39.792-7.512,59.377C620.359,523.103,623.004,497.602,617.651,472.314z"/><path fill="#ffffff" fill-rule="evenodd" clip-rule="evenodd" d="M186.271,496.7c-9.195-22.831-5.819-46.123-7.823-68.898   c13.384-3.209,21.308,2.701,19.803,14.995c-1.372,11.211-3.795,22.313-6.195,33.368C190.548,483.102,188.227,489.86,186.271,496.7z   "/><path fill="#ffffff" fill-rule="evenodd" clip-rule="evenodd" d="M681.327,533.956c-6.78-21.849-0.504-41.828-3.885-62.188   c16.505,5.84,18.341,7.737,17.915,20.344C694.865,506.54,690.59,519.846,681.327,533.956z"/><path fill="#ffffff" fill-rule="evenodd" clip-rule="evenodd" d="M138.046,478.545c-9.63-18.083-3.134-37.935-6.232-57.559   c9.544-1.978,11.787,3.54,11.724,10.063c-0.153,15.854-0.974,31.704-1.527,47.555C140.688,478.584,139.365,478.565,138.046,478.545   z"/><path fill="#ffffff" fill-rule="evenodd" clip-rule="evenodd" d="M845.747,604.394c12.646,1.732,18.915,6.233,17.65,15.193   c-3.269,23.151-6.766,46.405-18.076,67.732C835.173,659.466,844.09,632.012,845.747,604.394z"/><path fill="#ffffff" fill-rule="evenodd" clip-rule="evenodd" d="M204.637,729.228c-10.462-29.123-10.004-59.125-10.369-90.13   c10.466,1.669,13.115,9.201,14.149,16.371c1.612,11.194,2.661,22.693,1.969,33.941C209.566,702.75,206.646,715.961,204.637,729.228   z"/><path fill="#ffffff" fill-rule="evenodd" clip-rule="evenodd" d="M148.889,630.847c3.401,4.775,7.974,9.109,9.976,14.414   c5.188,13.735,3.999,53.307-1.087,70.286C147.536,703.667,141.939,664.853,148.889,630.847z"/><path fill="#ffffff" fill-rule="evenodd" clip-rule="evenodd" d="M874.968,566.171c-6.96,8.777-14.979,12.506-24.812,12.57   c-13.471,0.092-26.935,1.31-40.41,1.573c-8.862,0.174-11.754-2.127-16.972-12.853C820.897,567.021,847.932,566.596,874.968,566.171   z"/><path fill="#ffffff" fill-rule="evenodd" clip-rule="evenodd" d="M801.631,596.794c12.07,0.82,12.688,8.735,12.005,15.792   c-1.922,19.873-4.764,39.653-8.588,59.474C797.757,647.6,796.421,622.907,801.631,596.794z"/><path fill="#ffffff" fill-rule="evenodd" clip-rule="evenodd" d="M855.267,346.898c-30.17,30.033-60.249,60.166-90.031,90.583   c-5.395,5.509-9.39,12.391-14.03,18.638c1.139,0.916,2.276,1.829,3.416,2.743c43.455-31.603,78.7-63.139,108.987-107.453   L855.267,346.898z"/></g></svg>