<svg xmlns="http://www.w3.org/2000/svg" xmlns:xlink="http://www.w3.org/1999/xlink" version="1.1" x="0px" y="0px" viewBox="0 0 100 125" style="enable-background:new 0 0 100 100;" xml:space="preserve"><g><path fill="#ffffff" stroke="#ffffff" d="M65.6,16.7C52.2,3.3,30.4,3.3,17,16.7S3.6,51.9,17,65.3c12.9,12.9,33.6,13.4,47.1,1.4l4.5,4.5l-1.7,1.7   c-0.8,0.8-0.8,2,0,2.8L84,92.7c0.8,0.8,2,0.8,2.8,0l5.7-5.7c0.8-0.8,0.8-2,0-2.8L75.4,67.2c-0.8-0.8-2-0.8-2.8,0l-1.1,1.1l-4.5-4.5   C78.9,50.4,78.5,29.6,65.6,16.7z M88.2,85.6l-2.8,2.8L71.2,74.2l2.8-2.8L88.2,85.6z M19.8,62.5C8,50.6,8,31.4,19.8,19.6   c11.8-11.8,31.1-11.8,42.9,0c11.8,11.8,11.8,31.1,0,42.9C50.9,74.3,31.7,74.3,19.8,62.5z"/><path fill="#ffffff" d="M58.7,23.6c0.8,0.8,2,0.8,2.8,0s0.8-2,0-2.8C50.4,9.6,32.2,9.6,21,20.7c-0.8,0.8-0.8,2,0,2.8s2,0.8,2.8,0   C33.5,13.9,49.1,13.9,58.7,23.6z"/></g></svg>