<svg xmlns="http://www.w3.org/2000/svg" xmlns:xlink="http://www.w3.org/1999/xlink" version="1.1" x="0px" y="0px" viewBox="0 0 100 125" enable-background="new 0 0 100 100" xml:space="preserve"><g><g><path fill="#fff" stroke="#fff" d="M28.4,90.4l1-9.6l0.5,0.1l-0.9,8.4l2.3-1.7l0.3,0.4L28.4,90.4z M70.1,87.6L60,80.2l0.3-0.4l10.1,7.4L70.1,87.6z     M72.7,82.8l-1.4-12.4l0.5-0.1l1.4,12.4L72.7,82.8z M41,81.3l-0.3-0.4l10.1-7.4l0.3,0.4L41,81.3z M31.2,69.5l-0.5-0.1l0.8-7.1    l-4.6-2l0.2-0.5L32,62L31.2,69.5z M73.8,61.1l-0.2-0.5l11.4-5l0.2,0.5L73.8,61.1z M16.4,55.7l-0.2-0.1L5.6,50.9l1.7-0.7l0.2,0.5    l-0.7,0.3l9.7,4.3L16.4,55.7z M95.8,51.4l-0.2-0.5l0,0l-10.4-4.6l0.2-0.5l0.2,0.1l11.2,4.9L95.8,51.4z M18.1,46l-0.2-0.5l11.4-5    l0.2,0.5L18.1,46z M74.7,41.7l-4.3-1.9l0.9-8.2l0.5,0.1L71,39.5l3.9,1.7L74.7,41.7z M30.6,30.9l-1.4-12.4l0.5-0.1l1.4,12.4    L30.6,30.9z M51.2,28.8l-0.3-0.4L61,21l0.3,0.4L51.2,28.8z M42.7,22.5l-10.1-7.4l0.3-0.4L43,22.1L42.7,22.5z M73.1,20.3l-0.5-0.1    l0.8-7.8l-2.9,2.1l-0.3-0.4l3.8-2.8L73.1,20.3z"/></g></g></svg>