<svg xmlns="http://www.w3.org/2000/svg" xmlns:xlink="http://www.w3.org/1999/xlink" version="1.1" x="0px" y="0px" viewBox="0 0 1000 1250" enable-background="new 0 0 1000 1000" xml:space="preserve"><g><path fill="#ffffff" stroke="#ffffff" fill-rule="evenodd" clip-rule="evenodd" d="M927.38,603.722c-3.561-15.827-7.759-31.517-11.043-47.396   c-6.69-32.335-11.503-65.134-19.85-97.018c-6.437-24.585-16.548-48.283-26.072-71.955c-5.462-13.574-17.55-18.509-31.684-18.173   c-9.318,0.221-18.642,1.615-27.929,1.379c-21.316-0.538-42.652-1.248-63.902-2.894c-11.779-0.913-24.03,2.168-35.308-4.813   c-17.778-11.006-36.399-20.658-54.003-31.921c-16.163-10.343-32.943-16.034-52.391-15.079   c-29.071,1.429-56.188,7.712-79.056,26.896c-6.496,5.448-12.854,11.059-19.611,16.88c-7.953-26.547-8.298-29.452-32.751-43.146   c-33.647-18.843-69.521-20.421-105.286-7.996c-21.4,7.434-41.457,18.693-62.252,27.935c-4.502,2.001-9.964,4.628-14.317,3.73   c-30.407-6.267-61.074-3.249-91.639-3.609c-18.58-0.218-37.177-0.052-55.741-0.73c-19.489-0.718-22.882-1.611-26.21,18.897   c-0.371,2.288-1.269,4.487-1.818,6.753c-10.498,43.346-22.791,86.26-27.286,130.922c-4.791,47.627-10.589,95.154-16.278,142.687   c-1.526,12.755-4.254,25.362-6.398,37.845c11.015,10.433,24.091,10.147,37.128,9.931c22.825-0.385,45.663-1.471,68.473-1.047   c32.076,0.597,64.129,2.458,96.199,3.502c55.354,1.805,110.721,3.38,166.077,5.13c2.244,0.071,4.649,0.533,6.663,1.484   c17.493,8.239,35.603,9.358,54.323,5.392c4.499-0.954,9.208-1.429,13.798-1.314c15.81,0.389,19.761-2.543,23.549-17.733   c23.439-1.458,46.646-2.718,69.826-4.414c19.019-1.391,37.983-3.515,57.007-4.923c13.877-1.033,27.803-1.488,41.713-2.095   c13.022-0.571,26.048-1.232,39.079-1.443c25.51-0.413,51.027,2.263,76.558-1.639c9.486-1.45,19.472,0.426,29.239,0.683   c25.893,0.678,51.091,3.795,75.826-1.854c3.821-0.874,7.631-1.955,11.433-3.288C933.138,640.752,931.444,621.786,927.38,603.722z    M907.374,647.258c-9.92,7.907-28.695,7.893-40.513,7.651c-27.88-0.572-55.756-1.587-83.634-1.504   c-30.713,0.09-61.425,0.939-92.123,1.938c-35.816,1.173-71.65,1.786-107.241,7.208c-13.723,2.09-27.86,1.776-41.817,1.984   c-10.657,0.158-20.387,1.569-26.556,11.635c-0.722,1.18-1.625,2.349-2.701,3.195c-9.782,7.676-47.323,9.753-57.556,2.529   c-6.191-4.373-12.259-5.326-19.599-4.687c-8.258,0.723-16.664-0.097-24.998-0.465c-50.612-2.217-101.211-4.566-151.826-6.725   c-27.425-1.166-54.857-2.243-82.296-2.979c-19.929-0.534-39.876-0.354-59.813-0.671c-7.247-0.118-14.489-0.76-23.366-1.257   c1.012-23.962,0.855-45.351,3.042-66.496c3.682-35.624,8.492-71.148,13.539-106.614c2.805-19.739,6.628-39.362,10.754-58.876   c4.415-20.89,9.875-41.562,14.547-62.402c1.303-5.823,1.427-11.909,2.25-19.332c44.42-1.81,89.479-3.648,134.537-5.488   c0.117,1.081,0.231,2.162,0.351,3.245c-37.508,9.534-75.901,13.626-115.765,16.466c-7.087,47.409-14.605,94.574-21.042,141.886   c-4.011,29.449-6.867,59.081-9.148,88.717c-0.565,7.35,2.768,15.129,5.029,22.491c0.707,2.292,4.053,5.685,5.742,5.441   c9.171-1.316,14.48,6.208,21.776,8.404c7.855,2.366,16.571,2.046,24.936,2.546c26.582,1.584,53.31,1.439,79.23-4.472   c19.819-4.519,39.008-12.124,58.122-19.303c16.486-6.19,32.062-14.997,48.769-20.353c25.075-8.032,47.63-0.235,67.542,15.745   c6.836,5.485,12.835,12.01,18.18,19.616c-5.926-3.554-11.898-7.035-17.767-10.675c-25.952-16.08-65.19-14.956-89.968,2.961   c-8.461,6.117-17.028,10.371-27.902,11.357c-43.409,3.932-86.762,8.561-130.083,13.406c-9.979,1.12-19.75,4.115-29.763,9.019   c1.708,0.946,3.413,2.708,5.129,2.718c30.243,0.184,60.401,0.175,90.52-4.436c25.243-3.86,50.837-5.58,76.33-7.575   c11.209-0.878,20.832-4.439,28.976-11.973c10.025-9.277,21.586-14.762,35.388-13.377c7.713,0.773,15.706,1.956,22.787,4.868   c7.629,3.133,14.463,8.313,21.42,12.937c18.001,11.969,20.813,11.986,39.888-1.388c-11.479-13.456-22.169-27.548-34.463-40.073   c-24.437-24.91-67.017-30.628-98.192-14.553c-23.573,12.154-47.234,23.878-72.648,32.224   c-30.931,10.155-62.186,10.611-93.934,7.737c-9.157-0.825-18.295-1.896-28.982-3.015c3.447-41.136,5.773-81.374,10.465-121.333   c4.653-39.624,11.69-78.971,17.815-119.309c9.199-0.207,19.803,0.152,30.292-0.786c33.446-2.992,66.385-8.775,97.846-20.987   c7.781-3.018,15.169-7.122,22.542-11.089c20.587-11.079,42.425-19.021,65.028-24.434c24.938-5.974,49.016-1.847,71.878,9.621   c7.587,3.805,11.772,9.676,13.476,18.215c1.714,8.573,5.124,16.799,7.554,25.244c0.877,3.046,1.541,6.302,1.484,9.448   c-0.886,47.041-1.988,94.076-2.863,141.121c-0.632,33.954-1.119,67.918-1.378,101.878c-0.051,6.922,1.078,13.875,1.959,20.772   c0.285,2.247,1.635,4.339,2.304,6.563c1.486,4.929,5.087,6.502,9.725,5.907c5.612-0.716,6.043-5.025,5.818-9.449   c-0.562-11.15-2.156-22.338-1.666-33.435c2.317-52.445,5.22-104.862,7.832-157.293c0.257-5.101,0.098-10.232-0.086-15.339   c-0.662-18.63-1.261-37.265-2.237-55.879c-0.291-5.479-1.749-10.897-2.847-17.384c16.154-0.889,27.449-12.796,40.424-20.872   c29.282-18.236,59.635-20.397,90.674-8.125c15.789,6.243,29.991,16.522,44.865,25.059c15.326,8.797,30.257,18.349,45.963,26.394   c24.609,12.603,50.864,20.396,78.404,23.604c11.22,1.306,11.743,2.123,14.908,12.931c5.484,18.727,12.268,37.122,16.866,56.054   c6.922,28.47,12.263,57.315,18.604,85.931c3.105,14,6.955,27.838,10.794,43.043c-14.279,3.424-28.583,2.801-42.749,3.079   c-48.585,0.95-95.206-9.903-141.3-23.839c-11.573-3.495-23.227-6.732-34.833-10.129c-20.448-5.986-39.755-1.535-58.197,7.259   c-9.555,4.556-18.444,10.6-27.313,16.455c-3.408,2.25-7.013,5.346-8.651,8.921c-6.606,14.408-18.33,18.813-32.961,18.49   c-0.893-0.021-1.815,0.303-2.688,0.587c-0.404,0.134-0.716,0.557-1.792,1.446c6.304,4.416,12.199,9.143,18.642,12.93   c9.707,5.705,15.991,4.229,22.778-4.746c3.066-4.056,5.522-8.574,8.574-12.644c3.521-4.694,7.622-8.232,14.913-3.342   c-3.776,4.378-7.171,8.306-12.428,14.398c4.958-1.114,7.77-1.312,10.206-2.371c8.527-3.704,16.713-8.274,25.416-11.455   c12.174-4.451,24.335-4.653,36.375,1.753c10.449,5.563,21.159,4.453,31.729-0.006c-0.536-2.193-0.539-3.695-0.991-3.846   c-11.375-3.801-22.568-8.883-34.274-10.781c-14.216-2.306-28.667-0.32-41.928,6.23c-5.648,2.791-9.577,2.449-12.115-4.986   c24.276-11.175,47.939-18.451,75.16-9.954c30.145,9.411,60.878,17.43,91.853,23.545c30.934,6.105,62.266,10.914,94.237,7.024   c14.104-1.716,28.783-0.452,42.954,0.061c1.185-22.808-9.521-46.471-14.248-68.753c-5.177-24.413-9.325-49.023-13.698-73.589   c-4.135-23.232-11.07-45.962-16.555-68.965c-0.683-2.857-1.19-6.45-0.062-8.915c2.997-6.532-0.895-8.659-5.672-9.971   c-9.833-2.7-19.813-4.875-29.693-7.409c-17.546-4.503-35.077-9.085-52.59-13.717c-1.614-0.425-3.076-1.432-4.609-2.17   c0.135-0.628,0.268-1.26,0.404-1.891c16.408,0.762,32.813,1.62,49.226,2.24c12.517,0.473,25.046,0.806,37.569,0.891   c9.962,0.066,11.709,1.162,15.349,10.697c5.632,14.747,12.108,29.219,16.896,44.231c4.082,12.79,7.067,26.054,9.184,39.321   c7.914,49.577,19.892,98.235,32,146.884C915.643,636.074,912.867,642.881,907.374,647.258z"/></g></svg>